<?xml version="1.0" standalone="no"?>
<!DOCTYPE svg PUBLIC "-//W3C//DTD SVG 20010904//EN"
 "http://www.w3.org/TR/2001/REC-SVG-20010904/DTD/svg10.dtd">
<svg version="1.0" xmlns="http://www.w3.org/2000/svg"
 width="2160.000000pt" height="1392.000000pt" viewBox="0 0 2160.000000 1392.000000"
 preserveAspectRatio="xMidYMid meet">
<metadata>
Created by potrace 1.16, written by Peter Selinger 2001-2019
</metadata>
<g transform="translate(0.000000,1392.000000) scale(0.100000,-0.100000)"
fill="#000000" stroke="none">
<path d="M8428 13582 c-37 -57 -37 -57 -114 -74 -75 -17 -78 -17 -109 2 -41
26 -100 26 -165 0 -27 -11 -50 -17 -50 -13 0 3 12 22 26 42 18 24 12 20 -18
-13 l-43 -48 -140 -2 c-145 -2 -186 -11 -209 -48 -8 -13 -6 -22 8 -37 17 -19
17 -20 -7 -36 -14 -9 -28 -23 -31 -31 -8 -21 10 -51 35 -59 17 -6 20 -12 15
-37 -5 -25 -1 -35 25 -59 27 -25 31 -34 28 -73 -3 -31 -1 -42 7 -35 15 12 22
3 17 -24 -3 -14 -16 -28 -33 -34 l-29 -11 15 27 16 26 -19 -24 c-10 -13 -29
-43 -41 -65 -20 -35 -21 -37 -3 -16 23 28 25 21 10 -32 -7 -28 -15 -38 -30
-38 -17 0 -18 3 -8 23 10 20 8 19 -13 -4 -12 -14 -36 -34 -51 -43 -32 -20 -57
-70 -57 -116 0 -25 -32 -98 -57 -129 -2 -3 -16 7 -31 22 -37 35 -81 45 -98 22
-10 -13 -10 -23 -3 -37 20 -36 3 -55 -54 -60 -29 -2 -69 -12 -89 -22 -70 -34
-59 -83 28 -123 48 -22 59 -23 87 -13 80 29 82 29 163 -6 129 -56 194 -40 194
46 0 51 -32 86 -86 95 -76 12 -85 16 -96 40 -9 20 -6 32 19 75 l30 51 17 -25
c9 -14 40 -39 69 -56 41 -23 64 -30 109 -30 101 0 131 26 142 125 9 77 40 100
117 90 l50 -7 -21 -35 c-23 -39 -27 -64 -8 -45 7 7 17 26 22 44 7 18 24 38 41
48 17 9 41 32 54 52 12 20 37 43 55 51 17 8 69 33 116 55 47 23 103 46 125 53
22 6 46 16 53 22 17 14 15 54 -5 65 -29 17 25 35 124 42 79 5 96 10 127 34 20
15 36 23 36 19 1 -4 7 3 15 17 25 44 4 92 -51 115 -18 7 -45 31 -59 54 -26 39
-66 61 -109 61 -15 0 -25 10 -33 31 -7 17 -21 33 -32 36 -12 3 -21 8 -21 12 0
3 16 30 36 59 20 30 34 55 32 57 -2 2 -20 -22 -40 -53z m-246 -128 c23 -12 44
-14 82 -9 28 4 71 8 95 8 42 2 45 0 53 -29 7 -29 12 -32 60 -37 34 -4 57 -12
63 -23 24 -40 57 -72 85 -84 38 -16 38 -32 -1 -64 -27 -23 -39 -26 -105 -26
-62 0 -89 -6 -150 -31 -41 -17 -81 -38 -89 -46 -22 -21 -18 -42 7 -52 20 -7
15 -12 -47 -43 -39 -19 -87 -41 -108 -48 -34 -11 -78 -48 -129 -109 -15 -18
-25 -20 -83 -14 -59 5 -68 3 -104 -20 -41 -28 -61 -69 -61 -132 0 -45 -11 -55
-69 -64 -58 -9 -109 9 -151 54 -46 49 -15 123 58 138 49 10 62 24 77 85 11 44
14 47 51 52 26 3 39 10 39 20 0 11 16 17 63 21 45 4 69 12 84 26 23 24 27 71
7 84 -22 14 -76 11 -116 -6 -48 -20 -60 -15 -68 35 -5 27 -15 46 -30 56 -20
13 -22 20 -14 40 12 33 13 32 -16 58 l-26 24 36 22 c43 26 45 60 5 71 -17 4
-20 8 -10 11 70 23 93 28 138 28 41 0 53 -4 62 -20 18 -34 50 -33 145 4 103
40 124 42 167 20z m-782 -934 c20 -25 35 -32 78 -37 38 -4 57 -12 67 -27 33
-47 0 -75 -62 -52 -165 61 -149 58 -195 39 -56 -21 -109 -21 -142 0 -57 38
-11 69 96 66 72 -2 100 9 80 33 -5 7 -13 31 -17 53 l-7 40 39 -42 c21 -23 49
-56 63 -73z"/>
<path d="M9540 13390 c-14 -4 -43 -16 -66 -28 -34 -17 -47 -19 -83 -11 -24 5
-52 7 -62 4 -28 -9 -52 -50 -44 -75 5 -17 2 -20 -24 -20 -43 0 -97 -28 -111
-59 -12 -25 -13 -25 -21 -6 -4 11 -8 15 -8 9 -1 -6 -12 -9 -25 -7 -33 7 -61
-24 -70 -77 l-7 -43 -52 57 c-48 51 -57 56 -95 56 -83 0 -170 -48 -199 -109
l-18 -39 -55 5 c-86 8 -131 -9 -187 -71 -26 -29 -58 -58 -69 -64 -34 -18 -56
-76 -52 -135 l3 -52 -55 2 c-187 7 -195 7 -232 -11 -55 -27 -101 -92 -94 -134
6 -43 46 -95 97 -129 21 -14 36 -29 33 -34 -3 -5 -32 -23 -64 -39 -90 -46
-114 -97 -66 -145 17 -17 40 -25 82 -30 95 -11 131 -23 167 -58 49 -46 87
-117 81 -147 -4 -19 -3 -22 5 -10 8 12 13 8 25 -20 8 -19 20 -64 26 -100 7
-36 20 -94 30 -130 10 -36 21 -75 23 -87 8 -36 -11 -115 -44 -179 -17 -34 -29
-70 -27 -80 5 -30 50 -29 86 0 16 15 32 26 35 26 8 0 27 -87 27 -125 0 -20 -7
-66 -16 -103 -45 -195 -56 -220 -122 -277 -31 -28 -35 -37 -41 -105 -10 -100
-4 -151 20 -157 26 -7 28 -20 17 -119 -16 -141 20 -243 108 -311 22 -16 34
-35 35 -52 2 -23 2 -24 6 -3 2 12 6 22 7 22 2 0 29 -11 59 -25 90 -42 126 -21
148 85 10 49 46 122 116 233 27 42 178 192 224 220 23 15 140 47 171 47 4 0 9
-12 11 -27 l4 -28 2 30 c1 22 10 36 37 53 23 15 44 42 60 76 13 29 35 63 50
77 23 22 34 24 122 24 90 0 103 3 164 33 36 18 89 53 117 78 29 26 51 40 52
32 1 -18 20 51 22 82 1 14 10 36 20 50 33 48 13 146 -48 231 -20 28 -35 52
-33 54 18 15 52 24 75 19 60 -12 126 75 104 138 -12 34 -3 48 30 48 9 0 29 10
44 22 24 18 27 26 22 60 -3 22 -13 48 -22 58 -17 18 -16 21 8 49 31 37 43 99
28 144 -9 27 -8 40 4 63 8 16 15 53 15 82 0 29 9 86 20 128 11 41 18 79 15 84
-10 16 27 83 72 126 43 42 45 46 29 63 -16 18 -15 19 27 30 35 8 58 25 111 81
58 62 66 75 66 109 0 33 -6 45 -42 76 l-41 38 -74 -6 c-58 -4 -83 -12 -123
-36 -50 -31 -50 -31 -34 -6 33 51 -13 67 -128 43 -31 -7 -60 -9 -64 -6 -3 4 2
18 11 32 10 14 15 33 11 41 -4 13 8 15 83 15 116 0 150 7 163 35 24 53 -59
122 -169 140 -36 6 -43 10 -43 30 0 13 -4 26 -9 29 -4 3 -6 17 -3 31 8 46 -39
78 -148 102 -77 16 -204 23 -240 13z m230 -75 c69 -12 80 -16 80 -24 0 -4 -33
-11 -72 -15 -75 -7 -105 -23 -95 -50 5 -11 25 -16 79 -18 70 -3 73 -4 73 -28
0 -22 6 -26 65 -38 128 -27 209 -56 195 -70 -4 -4 -70 -10 -148 -13 -119 -4
-151 -9 -197 -29 -59 -25 -110 -65 -110 -87 0 -21 26 -26 52 -10 13 8 45 18
72 22 27 4 54 9 60 11 8 3 11 -6 8 -31 -2 -19 1 -42 8 -50 15 -18 69 -19 123
-4 22 6 41 8 44 6 2 -3 -39 -40 -91 -82 -100 -82 -113 -99 -95 -121 17 -21 38
-17 77 13 19 14 67 42 106 60 39 18 82 40 96 48 123 72 213 85 240 34 9 -16 8
-26 -6 -47 -30 -46 -103 -111 -131 -118 -51 -12 -143 -64 -143 -80 0 -9 14
-21 30 -27 17 -6 29 -14 27 -17 -2 -3 -16 -31 -31 -64 -16 -32 -37 -67 -47
-77 -34 -34 -50 -81 -60 -171 -6 -64 -15 -97 -29 -115 -24 -31 -26 -56 -5 -73
18 -15 20 -71 3 -88 -7 -7 -19 -12 -27 -12 -19 0 -51 -30 -51 -48 0 -8 16 -34
35 -58 19 -23 35 -44 35 -47 0 -3 -12 -8 -27 -12 -52 -12 -73 -33 -73 -70 0
-19 5 -45 11 -59 16 -35 -4 -59 -41 -51 -32 7 -102 -26 -125 -58 -17 -24 -20
-73 -5 -82 16 -10 72 -96 66 -102 -2 -3 -17 4 -31 16 -33 25 -92 38 -107 23
-13 -13 10 -68 48 -119 l24 -32 -32 -5 c-18 -3 -46 -7 -62 -8 -36 -4 -56 -31
-40 -55 10 -15 26 -18 103 -17 50 1 91 -2 91 -6 0 -5 -23 -29 -51 -54 -86 -77
-187 -113 -275 -97 -22 4 -53 4 -70 -1 -33 -8 -84 -65 -107 -119 -24 -57 -65
-84 -158 -102 -48 -10 -99 -27 -120 -41 -63 -42 -219 -197 -246 -245 -14 -25
-41 -71 -59 -102 -19 -31 -41 -85 -50 -120 -24 -95 -27 -97 -120 -49 -65 33
-85 49 -114 92 -35 51 -35 52 -40 186 -4 116 -7 135 -24 147 -17 13 -18 24
-14 111 5 92 7 97 35 119 68 54 94 113 132 301 17 84 19 111 10 165 -5 35 -17
74 -25 87 -15 23 -58 30 -69 12 -3 -5 -11 -10 -16 -10 -6 0 -2 15 9 33 44 71
50 193 15 277 -8 19 -20 70 -28 112 -19 113 -92 253 -168 327 -37 35 -116 61
-188 61 -48 0 -68 23 -44 50 10 11 34 25 54 31 48 16 88 45 96 69 11 35 -5 60
-58 90 -50 28 -87 72 -87 102 0 17 44 60 79 78 17 9 50 11 110 6 151 -10 201
15 201 103 0 46 21 91 42 91 6 0 34 26 63 58 l53 57 93 0 94 0 25 50 c20 39
35 55 70 72 85 40 88 40 134 -12 106 -123 114 -129 139 -113 14 10 24 30 28
54 5 32 6 34 8 11 1 -38 51 -84 98 -93 31 -6 40 -3 55 16 29 35 19 101 -24
163 -11 15 -17 34 -14 42 8 22 53 29 107 17 27 -7 55 -9 64 -6 23 9 18 38 -10
64 -36 34 -33 50 8 40 17 -4 45 -15 61 -23 33 -18 56 -8 56 23 0 30 39 40 140
36 52 -3 111 -7 130 -11z"/>
<path d="M7279 13268 c-61 -67 -99 -141 -99 -195 0 -37 4 -44 30 -58 40 -20
37 -34 -11 -70 -70 -52 -89 -73 -89 -101 0 -34 50 -81 96 -90 42 -8 132 26
180 69 18 15 55 34 81 40 42 11 48 15 45 37 -1 14 -2 55 -2 91 1 99 -47 258
-92 306 -14 15 -33 23 -56 23 -29 0 -43 -8 -83 -52z m115 -47 c47 -73 79 -164
85 -238 6 -71 6 -73 -17 -73 -31 0 -84 -23 -101 -44 -20 -24 -105 -66 -135
-66 -13 0 -34 9 -47 19 l-24 20 73 68 c39 37 72 74 72 82 0 7 -16 29 -36 48
-40 38 -41 60 -2 117 27 40 90 106 100 106 4 0 19 -17 32 -39z"/>
<path d="M6689 13065 c-47 -35 -59 -53 -59 -91 0 -26 8 -39 35 -60 33 -25 35
-30 35 -85 0 -49 3 -60 21 -69 32 -18 64 -4 103 43 45 55 66 105 66 157 0 41
-4 50 -52 101 -36 39 -98 40 -149 4z m147 -40 c13 -17 10 -65 -8 -123 -12 -39
-66 -105 -79 -96 -5 3 -9 30 -9 59 0 52 -2 56 -35 77 -19 13 -35 27 -35 32 0
4 16 24 35 43 32 32 39 35 77 30 23 -3 48 -13 54 -22z"/>
<path d="M6940 12948 c-19 -18 -47 -56 -61 -86 -14 -29 -21 -48 -16 -43 17 17
24 13 36 -18 23 -54 100 -68 145 -26 27 25 36 75 13 75 -9 0 -12 11 -9 35 5
43 -19 75 -55 75 -14 0 -21 4 -18 10 10 16 2 11 -35 -22z"/>
<path d="M15293 12915 c3 -5 35 -46 70 -90 l66 -80 -26 -7 c-21 -6 -37 0 -77
30 -28 20 -61 49 -73 63 -49 57 -125 63 -227 16 -121 -56 -147 -135 -70 -217
13 -14 30 -44 38 -66 12 -37 12 -43 -4 -64 l-18 -23 -27 41 c-15 23 -30 42
-32 42 -3 0 2 -11 11 -25 51 -78 48 -72 32 -88 -10 -9 -45 -18 -92 -22 -69 -7
-83 -12 -148 -55 -132 -89 -211 -227 -189 -332 9 -44 3 -68 -17 -68 -4 0 -17
22 -30 50 -13 27 -25 48 -27 46 -3 -2 5 -22 16 -45 12 -22 21 -42 21 -45 0 -3
-19 -10 -42 -17 -24 -6 -51 -18 -62 -27 -29 -26 -56 -99 -56 -152 0 -41 -4
-52 -26 -69 -15 -12 -32 -21 -39 -21 -6 0 -22 -11 -35 -25 -26 -27 -50 -31
-98 -14 -23 8 -36 24 -56 67 -15 31 -24 48 -21 37 21 -68 20 -71 -24 -67 -56
6 -124 -34 -152 -90 -17 -33 -20 -55 -17 -113 3 -62 8 -79 44 -136 22 -35 52
-90 66 -120 l26 -56 -60 19 c-50 15 -86 18 -214 15 -133 -2 -154 -1 -155 13 0
9 -3 7 -9 -6 -6 -14 -27 -28 -62 -39 -68 -23 -279 -132 -393 -203 -50 -31 -50
-31 -57 -9 -6 21 -6 21 -7 -3 -2 -32 -23 -58 -91 -108 -30 -23 -80 -71 -110
-107 -30 -37 -61 -73 -67 -80 -7 -7 -13 -21 -13 -30 0 -10 -6 -15 -12 -12 -68
25 -89 29 -112 23 -15 -4 -28 -12 -30 -19 -16 -51 -14 -51 -93 32 -92 98 -110
121 -91 121 7 0 48 -11 91 -25 137 -44 256 -24 281 48 13 37 -16 93 -62 120
-22 13 -30 22 -21 27 17 11 6 23 -48 49 -26 13 -73 41 -103 61 -57 38 -117 76
-160 102 -25 14 -64 26 -169 49 -75 16 -253 5 -344 -22 -68 -20 -176 -74 -242
-122 -95 -68 -122 -98 -159 -174 -21 -43 -47 -87 -57 -98 -10 -11 -25 -38 -34
-59 -9 -22 -32 -59 -50 -83 l-34 -44 -4 28 c-3 21 -4 18 -6 -13 -2 -66 -19
-104 -46 -104 -16 0 -36 -15 -61 -47 -21 -27 -59 -71 -85 -99 -73 -79 -82
-104 -75 -198 12 -162 19 -190 60 -240 21 -26 51 -53 66 -61 42 -22 102 -19
134 6 35 27 36 2 1 -31 -49 -46 -85 -209 -62 -277 8 -23 12 -45 9 -48 -3 -3
-20 -2 -39 1 -23 4 -49 -1 -89 -17 -66 -28 -100 -78 -90 -134 6 -31 4 -34 -23
-40 -16 -3 -35 -13 -42 -21 -22 -26 -38 -17 -32 20 8 50 -26 114 -101 192 -89
91 -111 137 -102 215 5 56 4 62 -22 86 -23 21 -27 33 -27 77 0 46 -2 51 -24
54 -32 5 -86 -49 -106 -106 -33 -98 -20 -158 62 -294 l34 -57 -16 -53 c-8 -28
-24 -71 -36 -95 -38 -79 -10 -99 128 -88 58 5 92 4 113 -5 25 -10 34 -10 55 4
l26 17 -27 -51 c-15 -28 -32 -49 -38 -47 -6 2 -22 0 -36 -6 -14 -6 -64 -11
-111 -11 -94 -1 -129 -17 -129 -60 0 -32 80 -110 127 -124 22 -7 46 -19 52
-26 16 -19 26 -114 17 -160 -8 -43 -18 -44 -126 -16 -41 11 -99 20 -128 20
-60 0 -161 -32 -179 -57 -17 -23 -16 -71 3 -148 16 -62 16 -65 -5 -91 -25 -32
-27 -66 -5 -85 9 -8 13 -21 10 -35 -3 -12 -2 -34 4 -48 10 -27 83 -81 98 -72
5 3 24 -8 43 -24 40 -35 67 -37 102 -10 18 14 40 20 79 20 102 0 185 75 174
157 -7 56 -1 70 43 92 20 11 58 38 84 61 48 42 48 44 43 89 -10 72 -3 76 121
76 101 0 110 2 148 28 62 42 65 40 67 -70 l2 -98 3 94 4 94 28 -44 c42 -66
114 -136 165 -160 70 -33 96 -69 96 -136 0 -49 4 -59 34 -89 67 -67 115 -36
101 65 -5 31 -8 86 -7 123 3 85 -4 100 -77 185 -34 39 -61 74 -61 77 0 4 17
-2 38 -13 55 -29 140 -108 162 -150 10 -20 33 -51 50 -68 33 -33 68 -131 71
-203 1 -26 3 -29 6 -11 l5 23 26 -25 c64 -60 123 -27 147 83 10 47 42 80 78
80 41 0 102 -61 93 -93 -15 -50 -18 -87 -8 -87 6 0 35 -24 64 -54 42 -43 65
-57 112 -71 33 -10 73 -15 92 -12 32 5 34 4 35 -26 l1 -32 7 30 c5 25 12 31
46 36 41 7 120 11 186 10 24 -1 39 -7 43 -17 8 -22 -23 -183 -41 -212 -8 -12
-38 -33 -67 -46 -46 -21 -58 -22 -104 -13 l-51 11 -4 70 -3 71 -2 -76 -2 -76
-42 -12 c-24 -7 -57 -21 -74 -32 -24 -15 -37 -17 -65 -9 -19 5 -53 14 -77 20
-26 7 -59 26 -83 50 -57 55 -137 84 -212 75 -32 -3 -65 -9 -72 -11 -11 -5 -15
9 -18 58 l-3 63 -2 -68 c-2 -52 -7 -76 -23 -98 -15 -22 -20 -41 -17 -70 2 -28
0 -38 -8 -35 -7 3 -53 37 -102 76 -73 57 -95 70 -115 65 -26 -7 -93 20 -159
63 -32 21 -38 30 -38 59 0 69 -62 143 -120 143 -11 0 -20 5 -20 11 0 8 -4 8
-12 1 -33 -26 -118 -39 -265 -41 -172 -2 -225 -14 -278 -60 -39 -34 -105 -56
-143 -46 -15 4 -45 15 -69 26 -43 19 -90 24 -109 11 -5 -4 -17 -25 -25 -46
-11 -31 -27 -47 -79 -78 -83 -50 -108 -74 -119 -112 -8 -26 -10 -17 -12 49 -2
57 -5 36 -9 -75 l-5 -154 -90 -63 c-120 -84 -246 -208 -296 -294 -43 -74 -50
-110 -29 -149 24 -45 40 -125 40 -201 0 -64 -5 -85 -30 -137 -36 -75 -37 -83
-5 -120 14 -17 25 -34 25 -39 0 -5 15 -27 34 -47 19 -21 44 -60 56 -86 16 -34
34 -54 64 -70 62 -35 75 -49 91 -103 20 -69 39 -87 90 -87 36 0 45 -5 80 -46
112 -129 121 -138 156 -138 19 0 63 15 99 32 78 38 99 39 168 7 60 -28 62 -28
156 41 56 41 107 62 162 64 67 3 77 1 70 -16 -3 -8 -2 -13 2 -10 4 2 28 -15
52 -40 51 -52 66 -57 155 -52 l67 3 -3 -160 c-2 -88 -2 -259 1 -380 l4 -220 6
185 5 185 24 -40 c13 -22 59 -92 101 -155 129 -195 154 -245 155 -315 0 -43
-5 -68 -18 -85 -10 -14 -31 -43 -47 -65 -47 -64 -73 -165 -67 -258 5 -72 11
-90 71 -210 64 -129 66 -135 81 -262 22 -178 61 -256 147 -299 18 -9 25 -23
31 -71 4 -33 14 -99 22 -146 8 -47 16 -117 17 -155 2 -68 2 -68 5 -13 l4 57
50 -19 c27 -11 73 -19 102 -19 94 0 381 59 422 86 23 15 24 14 28 -13 l4 -28
2 30 c1 22 13 43 41 70 22 21 40 45 40 51 0 7 24 41 53 76 96 114 147 211 147
283 1 41 24 67 97 105 85 44 94 65 91 218 l-3 120 30 32 c17 17 53 48 80 68
28 20 80 63 117 95 76 67 88 93 88 198 0 89 -9 131 -30 136 -23 6 -37 38 -51
119 -21 119 17 256 105 384 l31 45 6 -65 6 -65 1 71 2 71 103 92 c56 51 116
106 134 122 18 16 50 57 72 91 49 78 94 139 205 280 25 31 52 72 62 90 9 18
27 46 40 61 19 23 22 32 14 48 -6 10 -18 19 -28 19 -9 1 -105 5 -212 9 -142 6
-206 5 -235 -3 -46 -14 -113 -5 -126 15 -5 8 -10 48 -11 89 l-2 75 -5 -70 -6
-70 -30 54 c-16 29 -45 70 -63 90 -18 20 -36 51 -41 69 -5 17 -23 49 -39 70
-38 48 -48 69 -56 116 -4 21 -18 61 -30 90 -13 28 -36 85 -51 126 -15 41 -42
91 -60 110 -18 19 -35 43 -38 53 -4 9 -24 43 -45 75 -22 31 -49 79 -60 105
l-21 48 22 -7 c34 -10 76 -54 104 -109 14 -27 36 -59 48 -71 13 -11 30 -46 39
-77 12 -41 25 -63 47 -79 17 -13 40 -44 51 -70 11 -26 40 -65 64 -87 25 -23
44 -49 44 -61 0 -24 25 -76 50 -105 9 -11 22 -35 29 -54 6 -18 24 -54 39 -80
17 -27 31 -67 34 -95 6 -54 27 -77 85 -97 28 -9 40 -7 87 15 30 14 58 26 61
26 3 0 30 11 58 24 121 57 235 106 244 106 5 0 29 13 51 30 23 16 44 30 47 30
2 0 6 -37 8 -82 l3 -83 2 97 c2 95 3 98 30 112 15 8 52 35 82 61 30 26 78 60
106 77 29 16 57 34 62 41 29 36 62 119 68 169 l7 57 -51 49 c-27 27 -64 55
-82 62 -19 8 -39 28 -52 53 l-20 40 31 -24 c18 -13 49 -41 70 -61 23 -22 55
-41 82 -47 24 -6 60 -16 80 -21 53 -15 185 -12 217 4 15 7 44 16 64 20 30 5
40 3 57 -16 19 -19 21 -36 23 -152 l2 -131 3 118 4 119 32 -25 c18 -13 55 -36
83 -50 59 -30 99 -73 127 -137 11 -25 28 -63 37 -85 10 -22 21 -58 25 -80 8
-43 48 -130 65 -140 5 -3 19 -35 30 -71 11 -36 29 -78 39 -93 11 -15 30 -51
44 -81 13 -30 34 -64 47 -75 12 -11 31 -37 41 -57 11 -21 30 -45 44 -54 16
-11 25 -27 28 -52 l4 -37 1 37 c2 36 4 37 30 32 43 -9 81 31 131 135 39 81 44
101 52 197 9 122 35 186 88 219 41 25 189 144 213 170 10 11 39 44 65 73 56
64 117 97 195 106 55 7 57 6 74 -21 10 -15 38 -59 63 -98 l46 -70 5 -210 6
-210 2 158 c1 86 6 157 10 157 5 0 27 -16 51 -36 40 -35 45 -36 97 -30 l54 6
29 -46 c16 -25 39 -78 51 -117 18 -60 21 -84 15 -157 -6 -78 -4 -92 18 -146
13 -32 34 -87 47 -122 12 -34 36 -79 52 -99 15 -20 30 -46 33 -57 22 -109 27
-121 72 -158 82 -70 156 -40 123 50 -16 47 -150 317 -196 399 -26 46 -35 74
-36 111 -1 46 17 112 30 112 3 0 46 -42 96 -92 73 -74 103 -98 149 -116 78
-30 127 -29 166 4 l31 26 2 -44 1 -43 6 50 c4 28 20 77 36 110 41 83 42 175 3
256 -23 46 -28 71 -30 140 -2 76 -2 78 -5 22 -2 -35 -8 -63 -12 -63 -5 0 -29
22 -55 50 -32 34 -46 58 -46 77 0 28 32 85 74 131 l21 24 6 -64 6 -63 1 71 c2
90 14 103 72 80 49 -20 89 -20 115 -2 11 7 73 31 139 52 186 60 203 78 268
284 16 52 39 119 50 148 35 91 29 242 -14 326 -11 22 -42 63 -69 91 -37 39
-49 60 -49 83 0 37 41 88 107 133 33 23 43 36 43 58 0 53 -74 97 -183 108 -34
3 -72 10 -84 14 -33 12 -30 57 6 97 24 26 38 32 70 32 34 0 42 -4 53 -27 18
-37 76 -57 145 -49 47 5 53 4 72 -20 11 -14 26 -46 34 -72 8 -26 21 -67 28
-92 12 -40 28 -61 125 -162 18 -19 68 -33 84 -23 18 11 11 43 -11 50 -16 5
-19 12 -15 28 36 124 37 135 21 166 -8 17 -29 46 -46 66 -19 21 -33 50 -36 72
-6 55 21 218 49 287 19 48 29 61 55 70 43 15 181 168 229 253 60 107 66 159
43 348 -10 88 -24 210 -30 270 -16 165 -18 173 -49 209 -41 46 -78 59 -148 54
-75 -7 -97 3 -122 52 -19 37 -20 47 -10 118 23 170 28 198 39 222 6 14 18 51
26 83 9 31 19 57 23 57 4 0 23 -29 42 -64 19 -36 36 -63 38 -61 2 2 -13 33
-33 70 -31 55 -36 70 -27 89 23 51 147 96 329 121 99 13 192 130 212 267 5 35
13 74 19 87 8 24 10 22 51 -37 23 -34 44 -62 47 -62 6 0 0 10 -48 79 -21 30
-38 58 -38 63 0 5 12 13 26 19 22 8 30 6 45 -10 27 -28 57 -35 82 -18 27 17
41 44 61 117 17 60 32 88 41 78 3 -3 10 -42 14 -87 5 -44 16 -92 25 -105 15
-24 15 -27 -8 -61 -22 -31 -66 -186 -66 -229 0 -30 -17 -16 -54 44 -21 33 -40
60 -42 60 -6 0 26 -56 60 -105 19 -28 21 -44 21 -210 0 -142 3 -186 15 -206 8
-14 41 -78 74 -143 40 -79 77 -137 117 -181 44 -48 59 -73 59 -94 0 -28 22
-61 39 -61 22 0 39 41 44 111 10 118 15 122 53 48 18 -35 33 -61 34 -57 0 4
-15 37 -32 73 l-33 66 22 42 c31 61 43 112 43 193 0 78 -8 101 -61 184 -69
107 -119 245 -119 328 0 60 2 66 41 112 34 40 52 52 109 70 53 17 76 20 97 13
44 -15 68 16 91 117 11 47 23 103 27 125 15 90 47 125 129 139 21 4 49 18 63
32 14 14 29 21 36 17 9 -5 9 -3 1 8 -6 8 -16 32 -22 54 -15 53 -62 100 -119
119 -26 9 -56 24 -67 33 -20 17 -20 17 -7 0 13 -17 12 -18 -15 -12 -32 8 -74
48 -74 71 0 8 24 30 54 49 30 19 62 45 70 57 23 33 19 86 -12 150 -26 52 -26
56 -7 46 11 -6 31 -19 44 -29 39 -31 75 -24 126 24 54 52 56 75 15 136 -37 55
-38 66 -2 44 23 -15 23 -13 -7 15 -23 22 -31 37 -26 50 3 9 9 46 12 82 5 62 4
66 -25 93 -38 37 -94 45 -158 23 -54 -18 -130 -21 -139 -6 -4 6 -12 10 -18 8
-7 -1 -30 4 -52 10 -22 7 -94 12 -160 12 -66 0 -175 7 -243 15 -68 8 -158 12
-200 9 -42 -3 -99 -7 -127 -9 -36 -2 -54 -9 -67 -25 -27 -33 -23 -47 27 -96
30 -29 45 -52 45 -69 0 -45 -27 -47 -232 -17 -37 6 -82 7 -103 2 -34 -8 -40
-5 -93 39 -31 26 -64 51 -72 55 -8 5 3 -7 25 -25 22 -19 51 -44 65 -56 l25
-22 -38 -37 -38 -37 -55 12 c-46 11 -59 18 -80 51 -19 29 -35 41 -69 49 -59
15 -113 14 -166 -3 -24 -8 -70 -22 -102 -32 l-57 -17 -98 89 c-90 83 -161 142
-122 103 8 -9 59 -56 113 -104 54 -49 94 -91 88 -93 -6 -2 -44 10 -85 27 -40
17 -102 36 -138 43 -54 10 -68 17 -81 40 -9 15 -25 28 -35 28 -28 0 -92 -28
-130 -57 -32 -24 -34 -24 -73 -9 -82 33 -138 11 -155 -59 -4 -16 -9 -34 -12
-39 -3 -6 -39 26 -81 70 -41 43 -66 68 -56 54 11 -14 43 -50 72 -80 47 -49 55
-63 63 -115 5 -33 10 -64 10 -69 0 -5 -35 -6 -79 -2 -74 7 -82 5 -131 -21 -30
-16 -63 -44 -77 -65 l-24 -36 -61 34 c-82 47 -116 71 -164 116 -41 39 -72 59
-154 99 -25 12 -56 33 -69 48 l-23 26 16 -27 16 -28 -38 0 c-51 0 -71 -23 -86
-97 l-11 -58 -50 -7 c-27 -3 -100 -2 -161 3 -71 6 -140 5 -190 -1 l-79 -10
-28 32 -29 33 21 -32 c12 -17 21 -34 21 -37 0 -3 -19 -15 -43 -26 -23 -11 -65
-38 -92 -61 -27 -22 -51 -36 -53 -30 -2 5 8 52 21 103 14 51 28 115 32 143 l7
50 21 -26 c12 -14 32 -39 44 -55 13 -16 0 7 -27 51 -42 67 -50 88 -50 128 0
83 -37 130 -131 163 -43 16 -62 32 -116 99 -66 80 -101 119 -90 100z m-135
-139 c34 -8 59 -22 73 -40 42 -53 126 -76 136 -36 4 16 11 19 32 14 48 -11
162 -84 172 -111 5 -14 10 -68 10 -121 1 -79 -5 -119 -30 -212 -59 -218 -33
-248 110 -124 102 88 197 111 395 96 134 -11 227 -3 250 19 8 9 18 39 23 68 5
29 15 57 22 62 19 12 66 1 116 -27 23 -13 47 -24 54 -24 7 0 27 -18 46 -40 51
-59 268 -195 295 -185 8 3 24 26 36 50 33 67 81 88 182 79 75 -6 79 -5 104 19
29 29 31 44 16 99 -8 28 -7 49 3 85 17 58 37 64 103 32 37 -17 50 -19 70 -10
13 6 24 15 24 21 0 5 19 19 42 31 l42 21 19 -26 c13 -19 28 -26 51 -26 41 0
167 -35 217 -60 45 -24 94 -25 146 -6 94 35 176 56 223 56 52 0 64 -8 101 -62
12 -16 34 -28 69 -36 86 -20 112 -16 150 23 44 46 88 51 235 30 173 -25 215
-10 215 78 0 44 -4 53 -40 90 -22 22 -38 42 -35 45 9 9 265 7 505 -4 170 -8
234 -15 264 -27 47 -21 146 -22 201 -2 62 22 102 19 120 -9 14 -21 15 -33 4
-85 -14 -75 -7 -116 31 -172 16 -24 30 -51 30 -59 0 -16 -62 -70 -81 -70 -12
0 -86 35 -139 66 -34 19 -64 14 -68 -12 -2 -12 15 -57 38 -101 22 -44 38 -86
35 -94 -3 -8 -32 -31 -66 -53 -77 -50 -85 -64 -64 -125 22 -67 56 -96 145
-120 84 -23 123 -48 128 -79 3 -16 -3 -23 -25 -28 -64 -14 -91 -26 -116 -52
-37 -38 -53 -83 -71 -197 -26 -156 -21 -145 -68 -145 -80 0 -145 -29 -210 -94
-73 -73 -75 -77 -83 -151 -6 -51 -2 -72 20 -135 37 -101 98 -220 125 -245 38
-34 50 -70 50 -145 0 -57 -6 -85 -30 -139 -16 -37 -35 -89 -42 -117 -7 -27
-13 -51 -15 -53 -1 -2 -18 11 -36 30 -37 37 -85 113 -107 169 -7 19 -31 67
-52 106 l-38 71 1 175 c1 204 25 340 72 402 32 42 33 46 7 96 -12 24 -20 60
-21 92 -2 146 -75 184 -134 69 -14 -28 -25 -63 -25 -78 0 -16 -7 -39 -16 -51
l-16 -23 -33 30 c-30 26 -37 28 -76 21 -25 -5 -51 -17 -61 -29 -19 -25 -43
-104 -51 -172 -13 -103 -95 -221 -161 -234 -17 -3 -62 -15 -101 -27 -205 -61
-216 -70 -294 -232 -102 -213 -127 -354 -78 -447 34 -65 82 -89 178 -89 107 0
119 -14 130 -152 5 -57 17 -157 26 -223 9 -66 17 -169 17 -230 1 -101 -1 -114
-26 -162 -16 -29 -28 -58 -28 -65 0 -7 -28 -46 -61 -85 -56 -68 -63 -73 -100
-73 -80 0 -137 -94 -164 -274 -9 -54 -18 -102 -20 -106 -3 -4 0 -32 5 -61 8
-44 19 -62 66 -111 53 -55 56 -62 50 -96 -3 -20 -6 -45 -6 -55 0 -16 -5 -15
-40 10 -38 27 -80 99 -80 140 0 28 -46 120 -75 149 -24 24 -29 25 -94 18 l-68
-6 -41 41 c-36 36 -46 41 -87 41 -69 0 -110 -22 -145 -76 -31 -50 -37 -85 -20
-128 13 -36 43 -48 152 -62 53 -7 106 -18 118 -24 20 -11 28 -30 11 -30 -5 0
-34 -23 -65 -51 -93 -85 -99 -170 -18 -243 70 -65 92 -110 99 -209 5 -75 3
-94 -20 -158 -14 -41 -37 -112 -52 -158 -56 -177 -68 -190 -241 -242 -51 -15
-106 -35 -124 -44 -39 -20 -112 -13 -103 11 7 18 -20 18 -56 0 -34 -18 -135
-126 -157 -169 -45 -86 -38 -117 51 -216 68 -76 115 -169 115 -226 0 -52 -38
-131 -83 -174 -36 -34 -37 -34 -79 -22 -87 26 -115 47 -232 170 -36 37 -56 51
-77 51 -31 0 -69 -40 -69 -72 0 -11 -4 -16 -10 -13 -5 3 -10 19 -10 34 0 74
-89 258 -135 279 -20 9 -36 10 -65 1 -37 -11 -40 -10 -74 22 -24 22 -41 51
-51 85 -8 28 -31 74 -50 100 -20 27 -43 62 -53 78 -9 17 -27 41 -40 54 -21 22
-28 23 -85 17 -34 -4 -85 -17 -114 -30 -57 -26 -137 -94 -159 -137 -8 -15 -34
-39 -59 -54 -25 -14 -45 -29 -45 -32 0 -4 -22 -26 -50 -50 -43 -37 -52 -41
-69 -30 -27 17 -58 -6 -100 -76 -30 -49 -35 -69 -45 -174 -11 -101 -18 -128
-50 -195 -43 -90 -60 -102 -90 -64 -66 82 -92 120 -103 153 -7 21 -23 51 -36
68 -12 17 -31 57 -41 89 -9 32 -31 78 -48 102 -16 23 -34 64 -39 91 -12 66
-89 220 -138 276 -24 26 -61 54 -89 66 -50 22 -82 48 -140 116 l-33 39 -60 -6
c-33 -4 -73 -14 -89 -22 -16 -8 -53 -15 -83 -15 -76 0 -208 34 -228 59 -25 30
-108 92 -145 107 -21 9 -72 14 -137 14 -92 0 -109 3 -152 26 -26 14 -66 41
-89 60 -69 59 -118 57 -124 -6 -3 -24 5 -46 31 -84 19 -28 38 -61 42 -74 4
-13 37 -54 74 -93 67 -68 68 -69 120 -69 47 0 56 4 99 43 65 60 77 63 100 23
11 -18 43 -46 73 -63 77 -43 93 -64 87 -111 -8 -56 -50 -115 -104 -147 -26
-15 -66 -45 -88 -65 -23 -20 -57 -47 -76 -60 -19 -13 -56 -43 -82 -67 -26 -24
-53 -43 -60 -43 -7 0 -44 -15 -83 -34 -38 -19 -97 -47 -130 -62 -33 -15 -86
-40 -119 -55 -32 -16 -67 -29 -77 -29 -32 0 -59 36 -59 78 0 25 -10 54 -28 83
-16 24 -33 58 -39 75 -6 18 -27 54 -46 82 -19 28 -37 68 -41 91 -5 33 -14 46
-45 66 -24 16 -45 42 -56 68 -10 23 -35 60 -56 82 -20 22 -44 63 -53 91 -9 29
-26 60 -37 70 -12 11 -30 37 -41 59 -32 64 -86 114 -142 130 -35 11 -53 12
-62 4 -7 -6 -18 -8 -24 -4 -17 10 -13 0 54 -133 35 -70 67 -137 71 -150 3 -12
28 -47 53 -76 36 -41 52 -70 66 -122 11 -38 28 -87 39 -109 11 -22 26 -67 34
-100 8 -33 22 -69 32 -80 10 -11 24 -36 30 -57 7 -20 29 -56 50 -80 20 -23 48
-65 61 -92 13 -27 40 -66 60 -86 32 -32 46 -38 97 -44 34 -4 71 -2 86 3 22 9
404 7 413 -1 5 -5 -117 -183 -150 -218 -18 -19 -40 -46 -49 -60 -10 -14 -46
-68 -81 -120 -48 -72 -90 -118 -167 -185 -139 -122 -176 -159 -215 -222 -44
-68 -93 -189 -104 -257 -14 -84 17 -259 52 -304 6 -7 9 -48 6 -98 l-5 -86 -49
-44 c-27 -25 -74 -62 -104 -83 -81 -57 -147 -132 -156 -176 -4 -21 -4 -77 0
-126 4 -57 3 -96 -4 -109 -6 -11 -37 -33 -69 -50 -82 -41 -106 -73 -115 -151
-7 -70 -44 -140 -121 -234 -23 -27 -54 -72 -70 -100 -28 -49 -38 -60 -81 -90
-21 -16 -137 -48 -214 -60 -25 -4 -78 -13 -119 -22 -79 -15 -147 -7 -171 23
-6 7 -20 61 -31 121 -25 143 -46 203 -68 203 -23 0 -64 46 -83 95 -9 22 -22
78 -28 125 -24 186 -34 218 -133 405 -49 92 -24 277 48 362 44 52 59 102 52
182 -5 72 -21 105 -133 275 -61 93 -72 109 -132 198 -47 69 -52 138 -18 250
29 95 34 169 12 187 -9 8 -44 9 -112 5 l-99 -6 -52 41 c-29 23 -55 51 -58 61
-15 47 -176 13 -285 -60 l-65 -43 -62 17 c-83 22 -111 20 -189 -9 -36 -14 -71
-25 -76 -25 -14 0 -158 151 -158 165 0 20 -10 23 -51 14 -22 -5 -47 -6 -55 -1
-9 5 -26 37 -38 72 -18 53 -29 69 -66 95 -30 20 -54 48 -70 81 -14 28 -38 67
-55 87 -65 77 -78 107 -72 166 4 34 12 58 21 63 25 14 21 177 -5 248 -11 30
-23 67 -26 81 -7 38 37 112 123 206 62 68 109 105 249 196 59 38 70 63 70 158
0 97 5 106 78 155 65 43 96 75 107 110 15 45 40 47 127 13 102 -41 154 -32
261 46 37 26 65 31 277 42 251 13 263 12 291 -20 13 -16 24 -41 24 -57 0 -38
17 -80 38 -96 53 -40 135 -76 165 -71 26 4 40 -3 77 -33 132 -110 170 -133
206 -124 24 6 25 9 19 53 -6 43 -4 50 23 79 27 29 36 32 89 32 66 0 126 -24
163 -65 37 -40 89 -63 170 -76 70 -10 72 -10 94 14 36 39 118 52 197 32 70
-18 103 -14 119 15 6 11 19 20 29 20 41 0 66 51 85 168 31 191 16 198 -324
162 -98 -11 -199 22 -238 78 -18 25 -20 35 -12 57 23 61 3 119 -57 160 -78 52
-176 21 -201 -65 -22 -76 -40 -110 -55 -104 -20 7 -53 72 -67 130 -7 32 -22
61 -37 75 -14 13 -41 48 -60 76 -43 67 -103 125 -174 169 -70 42 -110 52 -128
30 -20 -24 -1 -63 79 -161 l71 -88 -6 -61 c-4 -34 -2 -82 5 -110 12 -54 7 -68
-16 -44 -9 9 -18 41 -21 76 -7 74 -37 116 -109 151 -53 27 -145 114 -169 161
-32 63 -85 66 -151 9 -31 -27 -52 -38 -63 -33 -34 14 -98 16 -141 3 -25 -7
-52 -13 -60 -13 -19 -1 -29 -41 -23 -92 5 -38 2 -43 -33 -71 -22 -17 -53 -38
-71 -47 -46 -23 -63 -53 -63 -111 0 -82 -46 -125 -136 -125 -32 0 -61 -8 -89
-25 l-42 -24 -69 36 c-96 50 -104 58 -104 109 0 24 -4 46 -10 49 -16 10 -11
37 12 62 l21 23 -22 89 c-27 107 -22 122 46 145 62 21 142 20 233 -4 96 -25
126 -25 140 0 15 28 20 98 9 145 -5 22 -11 52 -14 67 -3 18 -19 37 -44 52 -48
31 -112 97 -104 109 3 6 35 7 72 3 55 -5 71 -2 99 14 18 11 41 20 53 20 20 0
109 86 109 107 0 12 11 17 67 28 40 8 46 17 53 80 7 67 46 95 131 95 46 0 64
5 79 20 24 24 24 22 5 84 -13 41 -13 60 -3 110 13 67 26 56 27 -22 1 -36 7
-49 34 -74 35 -34 107 -68 140 -68 12 0 40 11 63 24 23 13 59 26 80 30 21 4
58 14 80 22 39 15 44 14 80 -4 36 -18 58 -24 122 -37 12 -2 36 1 52 7 44 15
49 50 16 110 -20 36 -26 59 -24 90 3 37 6 42 23 40 63 -11 79 -7 94 23 12 26
12 35 -2 76 -21 59 -22 95 -1 103 9 3 49 6 90 6 66 0 80 3 110 26 49 38 47 81
-6 117 -21 15 -43 16 -160 11 -74 -3 -140 -2 -145 3 -31 24 -65 104 -65 153 0
76 20 112 84 155 64 42 106 88 106 115 0 28 -52 60 -119 72 -100 19 -119 2
-184 -162 -8 -19 -37 -64 -66 -99 -52 -65 -71 -110 -71 -172 0 -43 26 -123 46
-140 21 -17 17 -84 -11 -172 -14 -43 -25 -85 -25 -94 0 -24 -30 -53 -56 -53
-32 0 -54 10 -54 25 0 7 -16 55 -36 107 -39 99 -86 158 -126 158 -13 0 -41
-20 -69 -49 -89 -92 -103 -95 -163 -32 -24 25 -32 45 -40 104 -13 100 -10 164
9 194 10 14 41 51 70 83 48 52 123 159 155 220 7 14 30 45 52 69 21 24 38 49
38 56 0 7 15 32 33 56 19 24 48 76 66 116 38 82 65 110 176 184 189 126 426
152 638 68 26 -10 60 -28 75 -39 66 -51 132 -93 200 -127 76 -37 142 -101 142
-135 0 -28 -58 -58 -112 -58 -26 0 -88 14 -138 30 -50 17 -103 30 -119 30 -27
0 -61 -22 -61 -38 0 -19 46 -78 112 -144 41 -40 89 -92 107 -115 18 -24 39
-43 46 -43 18 0 35 31 35 62 0 44 12 50 60 33 56 -20 88 -8 115 42 32 59 65
93 107 110 21 8 48 28 59 44 11 16 35 37 52 46 18 9 57 38 87 64 30 26 80 61
111 77 30 16 76 41 102 56 68 40 225 102 279 110 26 4 50 11 53 15 2 5 33 12
67 15 75 8 149 -9 239 -54 35 -18 72 -30 87 -28 23 3 27 8 30 39 2 28 -9 61
-47 137 -27 55 -61 117 -75 138 -21 32 -26 50 -26 102 0 53 4 67 25 87 29 30
53 31 128 5 31 -11 73 -20 94 -20 38 0 103 31 103 49 0 5 13 12 30 16 44 10
71 55 80 134 11 104 24 118 131 135 60 10 74 36 71 123 -3 111 8 141 86 221
78 79 113 98 200 106 70 7 102 20 150 65 37 34 41 69 17 140 -9 24 -17 76 -18
116 -2 59 1 77 17 94 22 25 34 26 104 7z m-3198 -2166 c61 -17 67 -26 39 -50
-13 -11 -40 -29 -60 -39 -19 -11 -42 -27 -49 -36 -13 -16 -15 -16 -21 2 -6 13
-8 10 -8 -14 -1 -17 -6 -44 -11 -58 -6 -15 -11 -57 -12 -93 -1 -52 3 -77 20
-109 13 -26 23 -63 24 -95 1 -45 2 -47 5 -15 4 37 5 38 23 22 26 -24 101 -32
208 -22 101 9 142 4 142 -17 0 -16 -62 -30 -92 -21 -34 12 -128 -5 -149 -26
-24 -24 -25 -83 -3 -139 9 -23 15 -43 13 -45 -2 -2 -23 2 -46 8 -37 9 -45 9
-63 -8 -17 -15 -20 -30 -20 -100 0 -74 2 -84 25 -105 28 -27 32 -40 10 -40 -8
0 -15 8 -16 18 0 10 -3 12 -6 5 -7 -19 -38 -16 -83 7 -49 25 -86 25 -141 0
-24 -11 -55 -20 -68 -20 -13 0 -48 -14 -77 -31 l-54 -31 -44 17 c-79 30 -88
48 -88 169 1 79 -3 107 -14 117 -8 6 -14 21 -14 33 0 25 53 81 68 72 5 -3 17
-27 27 -53 9 -26 26 -66 36 -89 10 -22 19 -47 19 -55 0 -30 47 -62 100 -67 43
-4 55 -1 85 22 22 17 38 40 44 64 43 167 51 204 51 240 0 41 -17 92 -31 92
-12 0 -39 79 -39 118 0 46 17 78 75 146 24 29 54 74 65 99 11 25 25 49 30 52
6 3 10 16 10 27 0 23 27 58 44 58 6 0 27 -5 46 -10z m-1306 -807 c23 -19 25
-25 19 -71 -9 -82 17 -133 137 -262 23 -24 49 -58 57 -74 15 -29 14 -30 -23
-63 -39 -33 -40 -33 -126 -31 -47 2 -89 6 -93 10 -4 4 9 41 29 83 20 42 36 87
36 101 0 27 -19 68 -75 159 -33 54 -36 65 -32 112 3 28 11 62 18 74 12 23 12
23 20 3 4 -12 19 -30 33 -41z m3309 -2203 c56 -11 57 -12 57 -46 0 -63 -62
-97 -98 -52 -9 12 -34 40 -54 63 -20 22 -40 53 -43 68 l-7 27 43 -24 c24 -13
70 -29 102 -36z m2899 -1127 c44 -71 174 -337 184 -377 6 -26 5 -27 -13 -17
-38 20 -83 80 -83 111 0 40 -15 75 -51 119 -33 42 -98 203 -106 264 -9 66 8
78 21 15 7 -31 28 -82 48 -115z"/>
<path d="M12894 9055 c-95 -30 -113 -51 -143 -162 -14 -51 -27 -53 -66 -13
-15 16 -48 39 -72 50 -37 17 -50 19 -77 10 -77 -25 -126 -116 -126 -233 0 -55
2 -62 38 -98 49 -49 83 -57 142 -35 122 47 153 49 329 11 136 -28 233 -8 239
50 4 48 -29 88 -147 175 -61 46 -111 88 -111 94 0 7 16 36 35 66 38 61 45 101
18 99 -10 -1 -36 -7 -59 -14z m-14 -87 c-11 -18 -20 -47 -20 -65 0 -33 9 -41
139 -137 80 -59 122 -113 100 -127 -24 -15 -141 -9 -229 11 -103 24 -173 25
-230 5 -23 -8 -44 -15 -46 -15 -2 0 -5 37 -7 83 l-3 82 -2 -87 c-2 -106 -15
-120 -71 -82 -20 13 -43 24 -51 24 -41 0 2 142 57 190 39 34 53 37 54 13 0
-11 3 -13 6 -5 8 21 34 13 74 -23 72 -64 139 -39 154 58 8 51 29 85 58 97 36
14 38 12 17 -22z"/>
<path d="M3473 12788 c-123 -96 -317 -256 -415 -344 -34 -31 -71 -54 -91 -58
-45 -8 -106 -61 -127 -110 -21 -49 -227 -257 -268 -270 -39 -12 -52 -25 -52
-50 0 -12 -21 -46 -47 -76 l-47 -55 53 50 c51 48 53 49 67 30 14 -18 12 -20
-18 -31 -18 -6 -40 -22 -48 -37 -13 -24 -13 -28 6 -54 27 -36 91 -53 166 -46
31 3 68 3 82 -1 25 -6 25 -7 -40 -90 l-66 -84 -72 -11 c-126 -18 -196 -63
-242 -152 -33 -66 -31 -114 7 -174 l31 -49 -20 -40 c-30 -62 -34 -92 -18 -131
12 -28 26 -40 65 -57 63 -26 70 -53 41 -153 -25 -89 -25 -111 1 -126 32 -17
87 -4 221 52 109 45 178 84 248 138 49 37 135 84 189 102 82 29 123 25 192
-17 32 -20 59 -41 59 -45 0 -5 3 -8 8 -7 4 2 23 -6 42 -18 27 -16 40 -35 59
-85 13 -35 36 -77 51 -94 41 -46 71 -103 92 -180 11 -38 30 -90 43 -115 12
-25 33 -74 45 -110 13 -36 45 -108 71 -161 l49 -95 -40 -113 c-22 -63 -39
-115 -37 -118 2 -2 19 38 36 89 18 51 36 96 39 100 11 12 92 -176 107 -249 18
-81 55 -300 55 -316 0 -7 -5 -4 -11 6 -12 21 -42 22 -58 3 -24 -28 -59 -211
-60 -309 0 -41 -6 -55 -33 -85 -89 -99 -125 -236 -108 -414 13 -137 59 -251
153 -378 64 -87 138 -206 189 -303 39 -76 122 -278 139 -341 24 -88 55 -153
80 -167 15 -7 19 -22 21 -62 l1 -52 6 50 c5 42 10 50 31 55 34 8 35 28 9 107
-14 44 -22 91 -22 142 0 69 -1 70 -4 16 l-4 -60 -45 89 c-24 50 -44 95 -44
102 0 7 -11 32 -25 55 -26 46 -33 103 -14 114 28 18 138 -142 140 -202 1 -34
2 -35 8 -11 5 25 12 15 63 -90 39 -80 74 -137 111 -177 31 -35 61 -81 72 -110
10 -27 22 -54 27 -60 4 -5 8 -40 8 -79 0 -77 14 -104 93 -175 112 -101 342
-201 465 -201 19 0 21 -6 25 -67 l3 -68 2 71 c2 64 5 73 27 88 33 22 42 20 78
-10 30 -26 32 -26 173 -22 98 2 137 0 126 -7 -9 -5 -58 -10 -109 -10 l-92 1
-7 -29 c-4 -19 -1 -34 8 -44 17 -16 116 -33 202 -33 l59 0 -7 -32 c-11 -56 31
-122 159 -247 l115 -113 85 7 c76 7 86 5 114 -15 21 -14 31 -30 32 -48 1 -17
3 -21 6 -9 6 23 15 22 43 -8 19 -20 25 -40 28 -88 4 -64 -3 -81 -38 -89 -12
-2 -16 14 -21 82 l-5 85 -2 -105 -2 -106 -46 -38 c-83 -69 -99 -121 -72 -234
11 -48 10 -52 -15 -82 -53 -63 -27 -180 49 -221 15 -7 41 -42 60 -79 19 -36
50 -84 68 -107 31 -38 35 -52 47 -150 7 -59 15 -101 17 -91 2 9 -1 47 -6 85
-5 37 -8 70 -7 71 8 9 68 -69 100 -129 35 -66 60 -91 245 -240 70 -57 119
-162 131 -286 6 -54 8 -114 4 -133 -3 -19 -8 -102 -11 -185 -3 -82 -12 -175
-20 -206 -8 -31 -14 -90 -14 -130 0 -151 -26 -304 -64 -377 -21 -40 -20 -100
1 -143 9 -18 18 -58 20 -89 2 -40 1 -49 -6 -35 -20 42 -10 -6 28 -131 l38
-129 -18 -100 c-11 -55 -22 -136 -25 -180 l-6 -80 62 -95 c34 -52 67 -99 74
-105 31 -27 76 -96 76 -116 0 -13 17 -47 38 -75 122 -168 149 -211 182 -288
20 -47 39 -89 44 -93 9 -9 -2 21 -38 101 -14 32 -26 60 -26 63 0 2 15 -4 33
-13 40 -21 218 -31 260 -15 42 16 31 39 -43 94 -82 61 -147 124 -167 160 -12
24 -13 48 -4 155 6 70 10 136 9 147 -1 11 17 49 40 84 60 92 58 106 -28 144
-38 17 -70 36 -70 43 0 6 18 23 40 38 58 38 80 79 80 147 0 31 -7 76 -15 99
-19 55 -20 100 0 100 20 0 28 -18 66 -168 18 -73 35 -129 37 -124 1 5 -13 69
-32 143 -37 137 -36 148 6 149 29 0 56 39 63 90 l6 47 81 11 c64 10 88 18 118
42 71 56 73 119 9 221 -16 25 -29 49 -29 52 0 3 16 -1 36 -9 94 -40 159 -17
214 75 22 36 40 62 40 57 0 -4 13 17 30 48 16 31 63 108 105 172 81 122 100
163 110 241 18 135 93 199 252 216 39 5 42 3 46 -22 l4 -26 2 27 c1 21 10 32
39 47 30 15 45 34 74 93 20 40 44 100 53 133 29 106 67 299 69 350 6 123 2
112 48 119 67 11 126 79 161 187 47 143 41 175 -40 214 -31 14 -65 38 -76 52
-11 14 -29 33 -39 43 -28 26 -310 103 -347 95 -29 -6 -30 -5 -34 37 l-4 43 -1
-46 c-3 -67 -35 -94 -47 -39 -10 45 -53 64 -131 57 -51 -5 -62 -4 -58 8 3 7
-4 23 -16 35 -20 20 -30 22 -89 17 -36 -2 -75 -8 -86 -12 -13 -5 -3 10 25 40
l45 48 -47 -32 c-89 -59 -80 -96 20 -84 28 3 62 3 76 -1 22 -5 24 -9 16 -31
-18 -49 9 -69 53 -41 12 8 45 18 73 21 61 8 84 -8 84 -59 0 -46 21 -62 60 -46
16 7 30 16 30 20 0 5 14 13 31 19 27 9 49 6 137 -20 152 -44 176 -55 212 -100
19 -25 53 -49 86 -64 64 -29 66 -35 26 -150 -37 -107 -71 -151 -131 -169 -56
-16 -71 -40 -71 -118 0 -31 -9 -96 -20 -145 -11 -48 -27 -119 -36 -158 -29
-131 -75 -255 -100 -272 -13 -8 -54 -19 -92 -23 -115 -13 -153 -28 -201 -79
-53 -56 -91 -133 -91 -184 0 -21 -7 -51 -15 -66 -8 -16 -12 -31 -9 -34 7 -7
-41 -82 -77 -122 -30 -33 -162 -227 -198 -291 -13 -23 -34 -47 -48 -53 -29
-14 -87 -14 -131 -2 -71 21 -79 -10 -27 -103 37 -66 42 -94 24 -128 -17 -32
-86 -58 -156 -58 -75 0 -93 -14 -93 -74 0 -66 -16 -80 -83 -73 -49 6 -58 5
-66 -12 -12 -22 0 -109 23 -163 32 -76 18 -138 -42 -178 -20 -14 -44 -33 -54
-42 -39 -39 -10 -87 68 -108 62 -18 69 -30 45 -78 -11 -22 -33 -54 -48 -73
-28 -33 -28 -33 -28 -183 0 -146 1 -152 27 -189 27 -41 102 -108 174 -158 24
-16 44 -34 44 -38 0 -14 -83 -20 -148 -11 -77 11 -113 32 -153 90 -18 25 -61
75 -97 112 -61 63 -65 68 -59 104 5 30 1 44 -22 78 -16 22 -38 50 -50 60 -31
28 -128 177 -136 208 -7 28 13 139 51 286 14 54 24 113 22 140 -3 39 -7 48
-33 62 -28 15 -30 21 -36 91 -4 48 -15 94 -33 132 -30 66 -32 94 -10 125 25
36 44 128 64 312 10 96 24 191 30 210 12 37 15 77 25 365 8 206 0 253 -60 367
-35 65 -54 85 -130 138 -128 90 -174 132 -199 183 -13 29 -50 83 -80 121 -31
37 -56 72 -56 77 0 5 -15 26 -34 46 -47 53 -90 125 -88 147 0 10 -15 37 -34
59 -41 49 -44 84 -8 126 28 34 28 53 0 126 -20 53 -20 114 2 146 9 14 50 57
91 94 40 38 77 80 82 92 4 12 9 54 11 92 2 66 0 73 -27 101 -15 16 -50 37 -76
45 -26 9 -50 22 -52 28 -3 8 -32 11 -96 9 l-93 -3 -57 46 c-69 57 -162 159
-185 202 -11 23 -14 45 -10 72 8 51 -3 57 -133 64 -98 6 -173 26 -130 35 9 2
14 8 11 14 -5 8 14 9 62 5 58 -5 81 -1 144 20 65 22 85 25 158 20 91 -7 132
-24 132 -58 0 -11 -10 -43 -22 -71 -19 -45 -20 -56 -10 -94 33 -123 86 -179
195 -204 29 -7 57 -17 63 -21 6 -5 18 -7 26 -4 8 3 25 -6 38 -20 13 -14 29
-25 36 -25 7 0 24 20 38 45 36 60 178 182 228 196 70 19 174 2 288 -47 56 -23
81 -28 184 -31 l119 -3 82 -45 c45 -24 120 -75 167 -113 72 -58 93 -70 134
-75 54 -6 139 -41 197 -81 21 -14 57 -36 79 -47 46 -23 73 -53 129 -140 41
-62 63 -79 81 -61 8 8 0 28 -30 71 -23 32 -42 63 -42 68 0 24 -87 89 -186 139
l-109 56 -5 131 -6 132 -2 -131 -2 -132 -37 14 c-21 7 -52 13 -70 14 -24 0
-53 17 -119 70 -50 41 -129 91 -183 118 -53 26 -98 51 -99 55 -2 4 -9 4 -15
-1 -16 -12 -207 2 -234 17 -18 9 -23 21 -25 59 l-1 47 -4 -44 c-4 -39 -6 -42
-26 -36 -129 41 -254 47 -320 17 -52 -24 -181 -136 -203 -177 -10 -19 -23 -35
-29 -35 -24 0 -64 47 -68 80 l-4 35 -1 -33 c-2 -32 -3 -33 -39 -26 -54 10 -83
22 -121 50 -69 53 -88 124 -52 195 21 41 29 116 15 140 -22 35 -199 54 -282
30 l-33 -10 15 29 c8 16 15 47 15 69 0 33 6 46 30 68 34 30 37 49 13 92 -15
25 -16 34 -5 51 34 55 5 84 -75 75 -91 -10 -98 -12 -115 -47 -27 -57 -70 -100
-125 -125 -66 -28 -127 -30 -170 -3 l-33 20 -2 102 -2 103 -5 -94 c-5 -80 -8
-92 -19 -78 -24 29 -42 109 -42 186 0 71 15 149 58 296 l17 60 6 -60 6 -60 1
72 c1 39 7 75 12 78 6 4 26 1 46 -5 44 -15 62 -2 66 48 l3 37 125 0 c122 0
126 1 151 27 45 46 123 49 213 10 38 -17 50 -30 77 -83 70 -139 119 -190 184
-192 70 -2 71 48 2 198 -36 77 -43 102 -35 113 16 19 124 72 132 65 3 -4 6 -2
6 4 0 9 158 144 216 184 11 8 35 26 53 41 l32 28 -11 72 c-15 91 -4 126 40
135 37 7 50 28 50 82 0 43 26 81 56 81 8 0 32 18 51 40 33 37 40 40 87 40 32
0 65 7 88 20 26 14 38 16 41 7 2 -7 8 18 12 55 4 37 13 73 21 79 10 8 38 9 90
4 64 -6 78 -4 95 11 10 9 19 22 19 29 0 6 6 19 13 29 12 16 13 15 12 -11 l0
-28 65 1 c92 2 174 42 214 106 16 24 16 29 2 56 -14 26 -68 62 -95 62 -22 0
-32 41 -25 109 6 66 5 68 -21 89 -39 31 -102 29 -168 -4 l-52 -26 45 47 c79
83 135 98 265 70 39 -8 95 -15 126 -15 59 0 154 24 179 44 40 34 43 31 36 -35
-3 -42 -2 -55 3 -39 5 14 9 44 10 66 1 24 12 61 27 88 27 48 28 77 6 156 -7
25 -10 29 -11 13 -1 -20 -6 -23 -47 -23 -45 0 -45 0 -30 22 28 39 20 70 -29
118 l-45 45 6 57 c4 36 0 89 -11 150 -46 255 -57 288 -98 288 -31 0 -43 -11
-119 -110 -83 -108 -91 -115 -116 -99 -33 21 -75 97 -69 126 3 15 0 37 -5 49
-8 18 -6 37 12 83 21 56 21 62 6 92 -9 18 -16 42 -16 53 0 14 -3 17 -8 8 -6
-9 -22 -5 -64 18 -50 27 -122 45 -264 66 -61 9 -57 23 -67 -245 l-4 -85 -37
-24 c-22 -13 -44 -38 -53 -60 -14 -34 -13 -43 12 -140 16 -60 24 -113 21 -128
-8 -31 -73 -62 -129 -62 -27 0 -46 -7 -64 -23 -25 -24 -25 -25 -18 -135 8
-123 3 -134 -43 -110 -43 22 -54 55 -37 118 7 29 13 88 12 131 -1 43 -3 73 -5
65 -11 -39 -13 -39 -60 -1 -179 147 -271 203 -330 203 -39 0 -42 2 -42 27 0
16 -11 39 -27 55 -21 22 -27 37 -26 67 2 46 -16 66 -52 57 -31 -8 -32 3 -5 61
18 40 183 247 226 284 19 17 141 69 160 69 6 0 20 13 32 30 13 16 39 37 60 45
42 18 107 77 128 117 16 30 8 38 -48 52 -16 3 -28 13 -28 21 0 20 8 19 55 -10
22 -14 47 -25 55 -25 22 0 80 75 80 103 0 37 10 39 47 11 41 -31 63 -26 63 15
0 23 4 29 15 25 8 -4 15 -14 15 -23 0 -25 52 -25 83 0 41 32 61 82 53 137 l-6
47 53 25 c28 14 53 33 55 42 2 10 -17 40 -46 70 -44 48 -48 55 -38 81 5 15 14
27 19 27 6 0 53 -14 106 -31 52 -16 103 -28 112 -26 18 5 29 -11 29 -42 0 -26
74 -138 127 -192 37 -38 44 -52 41 -75 -3 -16 -3 -23 -1 -16 5 15 23 16 23 2
0 -20 -30 -83 -37 -77 -3 4 -16 -15 -28 -41 -12 -26 -37 -59 -56 -73 -42 -32
-79 -104 -79 -153 0 -21 10 -60 21 -87 20 -46 21 -55 10 -105 -7 -31 -11 -57
-8 -60 2 -2 9 21 16 51 7 30 16 55 20 55 3 0 35 -26 70 -58 90 -83 196 -116
225 -70 8 13 5 24 -13 49 -21 28 -22 31 -5 24 65 -27 93 -29 121 -9 41 31 42
87 5 183 -33 83 -44 145 -33 175 6 16 10 14 35 -18 39 -52 69 -69 106 -61 40
9 89 51 106 92 19 44 -2 108 -47 143 -65 50 -131 115 -145 142 -8 15 -14 46
-14 70 0 24 -6 66 -14 95 -9 32 -12 76 -9 116 l6 65 -47 46 c-25 26 -46 52
-46 59 0 6 9 36 20 66 12 29 19 55 16 58 -2 2 -12 -20 -22 -49 l-17 -53 -18
43 c-10 23 -22 42 -27 42 -4 0 -34 25 -65 55 -60 58 -79 65 -115 39 -21 -14
-22 -14 -22 9 0 40 -32 60 -87 54 -26 -2 -59 -8 -72 -12 -21 -7 -23 -6 -17 16
l7 24 -15 -25 c-8 -14 -28 -35 -45 -48 -17 -13 -48 -47 -68 -77 -20 -30 -38
-55 -40 -55 -7 0 10 55 28 90 9 19 36 59 58 89 61 81 51 121 -31 121 -75 0
-235 -109 -269 -183 -25 -55 -24 -73 7 -135 l26 -52 -31 -26 c-36 -30 -40 -60
-12 -96 15 -19 36 -27 97 -37 106 -18 104 -17 92 -52 -8 -23 -15 -28 -27 -23
-28 12 -76 15 -91 5 -10 -7 -15 -26 -14 -60 0 -46 -1 -50 -27 -55 -21 -4 -37
-21 -68 -74 -52 -90 -81 -104 -81 -39 0 16 9 40 20 54 11 14 20 35 20 47 0 25
-26 66 -43 66 -8 0 -8 -3 1 -12 19 -19 14 -58 -13 -89 -19 -23 -23 -37 -18
-62 9 -49 22 -67 46 -67 36 1 66 23 105 80 23 33 48 57 62 60 23 6 25 11 25
61 0 73 8 83 47 63 39 -20 118 -93 118 -108 0 -7 -23 -22 -51 -34 l-51 -21 6
-55 c7 -54 1 -76 -33 -118 -19 -25 -40 -22 -67 7 -32 35 -64 33 -64 -3 0 -40
-10 -46 -36 -21 -32 30 -68 22 -74 -17 -3 -17 -18 -45 -33 -64 l-28 -33 -50
28 c-58 31 -79 28 -79 -13 0 -34 13 -47 53 -57 l29 -8 -38 -38 c-21 -22 -46
-39 -55 -39 -10 0 -39 -18 -65 -41 l-47 -41 -19 34 c-27 46 -56 64 -74 46 -12
-12 -10 -19 11 -48 14 -19 25 -40 25 -47 0 -7 -24 -25 -54 -39 -45 -21 -73
-48 -172 -166 -146 -174 -181 -243 -136 -267 10 -6 29 -7 41 -4 20 5 21 3 15
-35 -5 -32 -2 -48 16 -77 l22 -36 -21 -15 c-23 -16 -29 -53 -8 -55 6 -1 46 -1
87 0 73 2 77 1 140 -41 102 -67 226 -175 240 -208 10 -25 10 -36 -4 -70 -9
-22 -16 -62 -16 -89 0 -44 4 -52 39 -84 51 -46 96 -56 124 -28 23 23 25 81 8
191 -12 73 -2 90 52 91 65 0 128 29 151 68 19 33 19 33 -4 152 -22 113 -23
119 -6 138 10 10 30 24 45 30 14 7 32 20 38 29 6 11 12 81 14 165 3 122 7 147
19 147 8 0 53 -7 100 -15 95 -17 163 -47 192 -86 19 -24 19 -26 -1 -69 -24
-53 -27 -98 -7 -125 7 -11 17 -35 21 -54 8 -38 39 -95 68 -128 13 -15 32 -23
53 -23 27 0 39 9 86 68 30 37 67 86 83 109 17 24 34 41 40 40 17 -6 34 -87 45
-217 10 -110 9 -133 -4 -165 -32 -75 -17 -110 68 -171 l29 -21 -24 -32 c-35
-48 -19 -65 65 -69 71 -3 75 -7 55 -59 -39 -104 -186 -149 -354 -108 -114 27
-176 16 -255 -46 -27 -22 -50 -34 -50 -27 0 7 -6 3 -13 -9 -6 -12 -28 -41 -48
-65 -115 -136 -119 -189 -8 -108 130 95 197 122 253 100 l28 -10 -7 -70 c-9
-85 3 -107 69 -139 24 -12 47 -29 50 -38 15 -37 -97 -111 -182 -121 l-45 -5
23 31 c42 57 -1 85 -58 37 -17 -14 -34 -39 -37 -56 -7 -30 -8 -31 -49 -25
-128 21 -123 21 -162 -18 -33 -33 -36 -41 -31 -76 7 -55 -22 -80 -103 -89 -55
-7 -66 -12 -94 -44 -17 -20 -44 -39 -59 -43 -36 -8 -67 -57 -67 -105 0 -30 -5
-37 -32 -50 -47 -20 -58 -51 -53 -141 l4 -78 -37 -30 c-189 -152 -257 -203
-321 -236 -102 -53 -104 -61 -46 -181 70 -145 71 -190 4 -163 -33 14 -84 79
-124 160 -37 75 -59 96 -124 121 -96 36 -172 24 -222 -34 l-27 -31 -79 17
c-106 23 -158 22 -183 -3 -11 -11 -20 -27 -20 -35 0 -11 -11 -15 -38 -15 -25
0 -45 -7 -56 -19 -18 -19 -81 -262 -95 -362 -11 -82 19 -263 44 -269 6 -1 26
-17 46 -35 100 -90 256 -56 342 76 29 43 36 49 69 49 20 0 43 2 51 6 14 5 18
-3 45 -84 10 -31 9 -35 -21 -61 -25 -23 -31 -35 -30 -67 1 -22 -3 -53 -8 -71
-8 -27 -17 -33 -57 -42 -26 -6 -90 -10 -143 -8 -93 3 -98 4 -133 35 -20 18
-41 32 -47 32 -5 0 -28 -10 -49 -22 l-39 -23 -162 55 c-143 49 -169 61 -231
111 -100 80 -119 107 -128 187 -5 37 -13 82 -19 100 -5 18 -7 40 -4 48 3 10
-12 32 -43 62 -79 77 -108 120 -184 272 -115 233 -168 297 -223 269 -12 -7
-25 -17 -29 -23 -23 -34 4 -125 84 -278 39 -77 101 -260 85 -256 -22 7 -183
358 -218 473 -11 39 -33 88 -48 110 -16 22 -40 63 -54 92 -15 28 -48 78 -74
110 -77 94 -90 116 -127 209 -41 106 -55 244 -37 357 15 91 101 263 101 202 0
-10 7 -15 18 -13 15 3 18 19 23 118 3 63 11 150 19 193 l13 78 33 -32 c43 -42
64 -34 64 24 0 24 4 47 9 52 6 6 3 34 -8 75 -48 171 -60 218 -66 261 -3 26
-24 83 -45 128 -22 44 -46 104 -54 132 -9 29 -31 80 -50 115 -19 34 -48 102
-65 151 -16 48 -41 115 -55 148 -14 33 -26 70 -26 82 0 44 -44 138 -84 182
-53 58 -101 129 -101 149 0 9 -50 47 -120 89 -132 80 -151 85 -246 57 -59 -18
-180 -76 -219 -106 -72 -55 -161 -104 -261 -144 -109 -43 -139 -51 -139 -36 0
4 7 32 15 62 32 118 13 175 -72 211 -24 10 -46 25 -49 33 -3 7 7 42 21 76 l26
63 -35 52 c-48 68 -48 114 -3 181 47 71 96 94 289 138 22 5 34 20 58 69 16 34
39 76 51 94 l20 32 -25 16 c-18 12 -51 18 -115 19 -66 2 -96 7 -116 20 -25 16
-26 19 -12 34 9 8 26 16 39 18 13 1 26 3 31 3 13 2 7 36 -14 70 -13 21 -17 37
-11 43 13 13 145 33 166 25 9 -4 16 -17 16 -30 0 -33 34 -73 81 -97 44 -23 63
-24 108 -9 38 13 41 39 8 83 -13 17 -36 58 -51 90 -26 54 -28 68 -24 145 5
100 19 128 81 161 40 21 44 22 81 6 21 -9 46 -16 56 -16 10 0 44 29 77 63 39
42 78 73 115 89 76 35 165 60 187 53 11 -3 47 9 87 30 l69 35 18 -21 c9 -12
17 -27 17 -35 0 -7 14 -29 31 -48 17 -19 42 -59 57 -87 l27 -53 109 -37 109
-37 106 -108 c98 -101 161 -174 161 -189 0 -3 12 -24 27 -46 48 -73 91 -71
175 7 56 52 70 55 62 14 -18 -88 86 -76 253 30 62 40 73 39 73 -7 0 -42 37
-130 64 -152 14 -12 29 -13 79 -4 72 12 75 11 115 -60 41 -72 61 -87 155 -119
98 -32 108 -50 44 -77 -39 -17 -69 -53 -55 -66 7 -8 212 -45 245 -45 32 0 32
-1 39 -59 11 -104 35 -106 68 -7 l19 56 63 0 c58 0 64 -2 90 -34 16 -19 42
-53 57 -76 21 -32 31 -40 40 -31 7 7 59 11 144 11 129 0 134 1 143 23 9 18 10
17 6 -13 -3 -19 -8 -47 -11 -62 -6 -21 -2 -29 19 -43 36 -24 56 -13 56 30 0
56 14 73 68 81 58 8 98 28 113 55 15 29 -4 101 -43 158 l-31 46 24 70 c49 145
150 185 166 67 4 -31 -2 -52 -30 -106 -39 -73 -39 -97 3 -154 20 -27 21 -34
11 -81 -14 -64 -14 -61 2 -61 7 0 23 17 35 39 23 40 29 77 12 66 -5 -3 -10 2
-10 13 0 11 -9 31 -20 45 -28 36 -28 65 3 117 37 63 43 116 19 160 -34 63 -92
66 -151 8 -76 -73 -107 -202 -65 -265 39 -57 55 -115 36 -127 -10 -6 -155 -37
-157 -33 -1 1 -12 19 -24 40 -28 45 -52 45 -65 0 -8 -26 -16 -32 -43 -35 -33
-4 -43 8 -24 27 5 6 12 21 16 35 7 25 7 25 -8 4 -9 -11 -19 -32 -22 -46 -8
-30 -18 -34 -102 -37 -40 -1 -63 2 -63 9 0 21 -76 109 -105 122 -19 9 -54 13
-98 10 -64 -4 -68 -5 -85 -35 l-17 -32 -3 27 c-4 38 -37 58 -93 58 -26 0 -61
3 -79 6 -26 6 -31 11 -26 28 5 20 4 20 -9 3 -9 -12 -23 -17 -42 -15 l-28 4 37
16 c41 18 59 58 38 83 -6 7 -44 26 -83 41 -93 36 -117 53 -147 104 -50 85 -60
91 -139 84 l-69 -7 -26 51 c-37 73 -36 149 2 194 15 18 42 56 60 83 27 39 28
44 7 20 -68 -77 -85 -99 -90 -116 -5 -13 -16 -19 -38 -19 -21 0 -61 -17 -110
-46 -78 -46 -167 -81 -167 -64 0 5 5 21 10 36 14 35 -2 54 -44 54 -38 -1 -60
-13 -121 -67 -26 -24 -53 -43 -60 -43 -12 0 -30 24 -95 127 -18 29 -39 54 -46
57 -8 3 -14 11 -14 17 0 10 65 88 159 192 13 15 22 27 19 27 -4 0 -48 -48 -99
-107 l-93 -106 -76 80 c-83 90 -106 104 -204 129 -50 13 -70 22 -76 38 -4 12
-17 29 -28 39 -11 10 -26 32 -33 49 -12 29 -11 32 22 62 75 68 183 170 164
155 -11 -8 -62 -53 -113 -99 l-92 -83 -27 29 c-15 16 -35 43 -44 59 -26 48
-57 53 -126 19 -32 -15 -71 -29 -88 -29 -44 -2 -135 -30 -207 -63 -45 -21 -78
-46 -115 -89 -52 -60 -53 -60 -88 -49 -19 6 -35 14 -35 18 0 15 410 359 555
465 17 12 27 23 23 23 -4 0 -60 -41 -125 -92z m-614 -794 c17 -33 40 -69 51
-79 28 -26 25 -35 -14 -35 -50 0 -98 37 -116 90 l-16 45 -73 5 -74 5 99 94 99
94 7 -80 c5 -59 14 -94 37 -139z m4141 -4 c-6 -11 -10 -26 -8 -33 1 -6 -15
-39 -36 -71 -42 -64 -63 -131 -68 -211 -3 -44 -1 -50 17 -50 15 0 28 17 50 62
70 142 114 184 211 202 61 12 67 4 49 -57 -9 -29 -13 -57 -10 -62 13 -21 49
-8 85 31 l38 42 66 -58 c58 -51 66 -63 72 -104 5 -39 14 -53 57 -92 l51 -45
-13 -47 c-8 -26 -10 -57 -7 -69 4 -13 11 -64 15 -114 5 -50 16 -104 24 -120 8
-16 52 -66 96 -111 93 -94 99 -116 49 -158 l-31 -27 -49 51 c-27 28 -57 51
-67 51 -62 0 -78 -137 -27 -249 59 -132 45 -163 -53 -116 -96 45 -139 17 -91
-60 12 -19 19 -35 16 -35 -40 0 -189 126 -212 179 -28 67 -11 130 46 171 33
24 92 109 123 179 26 58 13 102 -51 173 -66 72 -101 138 -112 205 -5 31 -15
60 -22 65 -7 4 -33 8 -58 8 -26 0 -97 18 -165 41 -66 22 -144 43 -174 46 -53
6 -54 6 -33 24 31 24 43 61 29 86 -50 86 -50 85 -38 124 8 27 28 51 69 83 62
50 127 86 155 86 15 0 16 -3 7 -20z"/>
<path d="M5968 12802 c-20 -20 -66 -66 -103 -102 -74 -73 -82 -101 -35 -125
16 -8 36 -15 45 -15 29 0 75 -30 75 -49 0 -13 -13 -24 -39 -34 -51 -21 -56
-31 -35 -67 17 -28 17 -30 -2 -52 -11 -13 -40 -53 -63 -90 -24 -38 -45 -68
-47 -68 -3 0 -19 16 -36 36 -17 19 -44 42 -59 50 -26 13 -32 13 -60 -2 -23
-11 -30 -21 -26 -35 4 -14 0 -19 -14 -19 -35 0 -99 -32 -119 -60 -28 -40 -25
-66 15 -113 19 -22 35 -44 35 -48 0 -3 -23 -9 -50 -13 -41 -5 -53 -12 -62 -31
-18 -39 3 -72 64 -100 49 -23 50 -25 23 -25 -74 0 -100 -69 -49 -129 14 -17
23 -35 19 -41 -3 -5 0 -8 7 -5 7 3 33 -1 58 -9 38 -11 46 -17 48 -42 2 -16 9
-35 15 -43 20 -24 90 -7 176 43 69 40 88 46 136 46 67 0 109 20 130 60 22 42
20 97 -5 112 -36 23 -22 64 42 134 112 122 128 146 128 204 0 34 -4 42 -26 50
-50 19 -133 -34 -190 -120 l-29 -44 -3 47 c-5 71 -58 97 -126 62 -64 -34 -61
-12 12 94 31 46 64 94 72 107 10 16 20 22 30 18 56 -25 208 5 294 57 77 47 80
63 20 98 -40 24 -43 48 -14 116 21 48 26 85 12 85 -5 0 -16 6 -26 13 -16 12
-16 14 4 42 18 25 16 24 -9 -4 l-30 -34 -63 9 c-59 9 -63 11 -68 39 -7 42 -29
41 -72 -3z m40 -52 c27 -27 37 -30 94 -30 88 0 95 -6 74 -66 -23 -69 -21 -98
13 -132 l30 -29 -47 -26 c-58 -31 -180 -58 -218 -48 l-28 7 31 22 c65 46 36
116 -58 143 -78 22 -77 27 3 112 40 42 74 77 75 77 1 0 15 -13 31 -30z m-309
-549 c5 -9 11 -32 15 -52 10 -58 25 -64 91 -34 80 37 88 31 79 -52 -13 -107
-11 -127 9 -131 11 -2 23 8 35 29 58 107 127 190 174 210 34 14 43 8 35 -23
-6 -22 -24 -45 -124 -160 -78 -89 -89 -128 -48 -176 28 -34 30 -41 14 -76 -14
-31 -57 -47 -103 -39 -29 4 -54 -4 -136 -46 -124 -62 -140 -64 -140 -17 0 33
-2 35 -52 50 -59 18 -79 31 -96 63 -22 40 -16 46 43 40 68 -6 93 0 101 25 6
20 -29 68 -50 68 -21 0 -116 49 -116 60 0 5 13 10 30 10 39 0 78 19 85 42 7
20 -18 56 -59 89 -14 11 -26 30 -26 41 0 33 55 75 115 89 30 7 55 16 55 20 0
14 60 -12 69 -30z"/>
<path d="M6774 12701 l-66 -100 -21 20 c-42 38 -157 14 -157 -34 0 -12 9 -28
21 -35 15 -10 19 -21 17 -45 -3 -31 -4 -32 -45 -29 -42 3 -43 3 -43 -28 0 -42
16 -69 47 -81 18 -7 23 -14 18 -27 -4 -12 -1 -11 15 6 11 12 30 22 41 22 10 0
35 15 55 33 32 29 36 38 42 107 7 72 11 80 80 183 40 59 70 107 67 107 -3 0
-35 -45 -71 -99z m-112 -96 c16 -7 13 -61 -6 -84 -8 -11 -8 -13 2 -7 8 5 12
-1 12 -23 0 -64 -88 -118 -132 -81 l-23 19 32 1 c60 0 87 91 42 139 -18 19
-19 25 -8 32 16 10 60 12 81 4z"/>
<path d="M6842 12588 c-20 -20 -14 -47 22 -94 38 -50 38 -65 -2 -129 -29 -46
-40 -118 -22 -140 20 -24 69 -43 147 -55 47 -8 77 -18 89 -31 10 -12 30 -19
51 -19 31 0 34 -2 28 -22 -5 -19 -3 -18 10 5 18 31 35 34 71 10 29 -19 101
-20 135 -3 76 39 92 99 38 144 -17 14 -34 26 -37 26 -4 0 -50 8 -102 17 -52 9
-126 17 -163 19 -92 4 -120 30 -82 80 8 10 15 38 15 61 0 70 -78 143 -153 143
-18 0 -38 -5 -45 -12z m82 -42 c64 -26 93 -90 61 -132 -32 -42 -12 -92 45
-109 14 -4 27 -11 30 -14 6 -8 89 -27 202 -46 48 -7 96 -19 108 -25 31 -17 25
-44 -15 -63 -45 -22 -73 -21 -98 1 -14 13 -33 16 -78 14 -39 -1 -67 3 -82 12
-12 8 -59 20 -105 26 -46 6 -95 16 -108 22 -33 16 -31 60 6 123 37 62 38 107
5 151 -41 53 -32 66 29 40z"/>
<path d="M5400 12541 c-55 -18 -89 -42 -143 -105 -77 -87 -96 -132 -99 -237
-3 -82 -2 -84 21 -87 40 -6 65 6 124 57 52 46 105 71 149 71 24 0 98 30 131
53 20 14 37 17 59 13 24 -5 37 -1 55 16 54 51 14 125 -98 180 -79 38 -155 53
-199 39z m174 -57 c92 -33 106 -46 106 -101 l0 -43 -39 0 c-24 0 -62 -13 -105
-35 -37 -19 -77 -35 -89 -35 -51 0 -101 -24 -158 -76 -40 -35 -70 -54 -86 -54
-25 0 -25 0 -18 68 9 84 26 122 89 196 92 106 170 127 300 80z"/>
<path d="M6506 12275 c-16 -26 -34 -45 -44 -45 -38 0 -120 -51 -146 -90 -34
-52 -33 -77 6 -118 l33 -33 -49 -45 c-42 -40 -47 -49 -42 -75 4 -24 -8 -57
-59 -159 -36 -71 -65 -133 -64 -137 0 -5 31 54 70 130 l69 137 50 0 c86 0 152
42 213 133 40 60 44 114 13 175 -31 61 -32 69 -8 75 9 3 0 5 -21 6 l-38 1 27
45 c14 25 24 45 21 45 -3 0 -17 -20 -31 -45z m-11 -84 c-4 -21 0 -38 20 -67
14 -21 23 -44 20 -52 -3 -7 -5 -22 -5 -32 0 -29 -76 -118 -120 -140 -21 -11
-54 -20 -72 -20 l-33 1 30 25 c17 14 40 35 53 45 32 27 28 54 -13 79 -19 12
-40 31 -46 42 -17 31 28 90 92 122 70 34 82 34 74 -3z"/>
<path d="M13534 12284 c-36 -18 -126 -101 -169 -156 -15 -21 -31 -35 -35 -33
-4 3 -10 -8 -13 -23 -3 -15 -25 -52 -48 -82 -58 -77 -76 -122 -89 -222 -20
-167 15 -285 112 -369 67 -58 92 -63 131 -27 33 31 33 36 3 48 -46 17 -58 174
-23 294 l11 39 13 -29 c10 -25 12 -26 13 -7 0 12 -5 33 -11 46 -15 34 33 127
109 209 122 133 155 199 128 262 -22 53 -80 75 -132 50z m84 -56 c34 -34 -3
-108 -111 -227 -79 -85 -109 -138 -138 -239 -28 -94 -30 -243 -6 -309 9 -24
12 -43 8 -43 -5 0 -30 19 -55 41 -38 34 -50 54 -67 112 -19 59 -21 84 -15 165
7 106 23 149 82 229 22 29 50 71 64 95 14 23 57 75 97 115 56 57 78 73 101 73
15 0 33 -5 40 -12z"/>
<path d="M10441 9637 c-51 -16 -136 -157 -129 -214 3 -27 5 -28 65 -31 110 -5
142 23 172 151 13 55 14 84 4 90 -21 12 -82 14 -112 4z m54 -39 c-8 -18 -17
-59 -20 -91 -7 -64 -14 -71 -87 -80 -61 -8 -62 0 -17 83 5 8 16 30 25 49 18
35 67 71 96 71 16 0 16 -3 3 -32z"/>
<path d="M18861 9229 c-36 -58 -49 -181 -23 -212 12 -14 17 -14 50 0 20 8 54
28 74 44 20 16 40 29 45 29 4 0 19 16 32 36 20 28 23 40 15 62 -11 32 -68 63
-130 70 -40 4 -44 2 -63 -29z"/>
<path d="M18958 8978 c-39 -31 -86 -152 -107 -276 -11 -67 -26 -132 -32 -145
-17 -32 -70 -77 -99 -83 -116 -26 -170 -53 -214 -105 -31 -37 -33 -69 -6 -94
16 -15 30 -17 88 -11 42 4 87 2 114 -4 40 -10 52 -9 117 17 132 51 192 129
205 268 3 39 11 106 16 150 18 148 23 222 16 259 -6 34 -9 36 -45 36 -20 0
-44 -6 -53 -12z m40 -100 c-51 -480 -50 -476 -174 -535 -72 -34 -77 -35 -129
-25 -35 7 -65 8 -87 2 -18 -6 -43 -10 -56 -10 -67 0 67 95 150 106 57 8 97 31
131 76 35 47 46 90 50 192 3 81 5 90 25 97 12 5 22 14 22 21 0 23 49 118 61
118 7 0 9 -15 7 -42z"/>
<path d="M18413 8240 c-17 -7 -23 -18 -23 -39 0 -33 23 -54 71 -65 34 -7 41
-34 27 -102 -8 -41 -8 -57 2 -69 34 -41 104 12 115 87 8 54 -10 127 -33 134
-18 6 -26 10 -77 44 -33 22 -48 23 -82 10z"/>
<path d="M17776 6374 c-22 -21 -13 -31 35 -39 l40 -7 -62 -56 c-105 -96 -179
-152 -242 -184 -136 -68 -167 -102 -167 -180 0 -85 54 -135 184 -168 103 -26
167 -34 211 -26 54 10 116 73 153 154 31 66 32 72 36 244 5 170 4 177 -17 210
-40 59 -135 88 -171 52z m118 -73 c18 -20 18 -17 14 -216 -3 -132 -5 -143 -33
-198 -41 -83 -83 -117 -143 -117 -55 0 -200 33 -243 55 -16 9 -37 31 -46 50
-27 56 -7 86 101 149 73 43 114 78 206 174 63 66 118 120 121 121 3 0 13 -7
23 -18z"/>
<path d="M16659 6244 c-18 -22 7 -91 83 -224 90 -156 210 -322 309 -427 147
-157 322 -238 559 -261 86 -9 116 1 104 33 -7 16 -24 22 -196 70 -70 19 -144
43 -165 54 -78 39 -127 103 -169 221 -44 123 -73 170 -153 250 -42 41 -103
112 -135 157 -40 58 -65 85 -84 90 -15 3 -41 17 -58 30 -36 27 -76 30 -95 7z
m75 -40 c9 -4 33 -30 52 -60 20 -30 53 -68 75 -85 21 -17 39 -39 39 -49 0 -11
24 -38 59 -64 78 -60 125 -127 162 -228 17 -46 43 -107 59 -135 15 -29 26 -53
23 -53 -21 0 -129 112 -212 219 -123 158 -178 240 -236 352 -54 104 -56 117
-21 103z"/>
<path d="M19135 5831 c-16 -4 -54 -20 -82 -35 -31 -15 -79 -29 -114 -33 -68
-7 -91 -23 -87 -62 2 -21 18 -34 87 -71 59 -32 115 -74 189 -144 58 -54 122
-105 141 -114 27 -12 65 -15 147 -14 110 2 113 2 180 -33 38 -20 79 -45 91
-57 13 -12 41 -22 68 -25 82 -10 110 48 60 121 -14 20 -36 52 -49 71 -14 20
-34 65 -46 100 -34 101 -72 136 -180 165 -25 6 -99 39 -166 72 -123 61 -177
74 -239 59z m210 -111 c55 -28 133 -61 174 -75 102 -34 116 -46 136 -107 23
-69 48 -118 92 -179 29 -41 32 -49 16 -49 -37 0 -111 29 -157 62 -47 32 -50
33 -174 38 -90 4 -133 9 -148 20 -12 8 -54 51 -95 94 -41 44 -107 101 -147
126 l-72 47 37 16 c21 8 65 27 98 41 79 35 113 30 240 -34z"/>
<path d="M19361 5198 c-5 -13 -25 -97 -45 -187 -38 -177 -53 -211 -91 -211
-29 0 -43 19 -24 31 10 6 6 9 -13 9 -15 0 -30 5 -34 11 -3 6 -15 9 -25 6 -13
-4 -30 7 -54 36 -40 46 -55 90 -55 160 0 100 -47 134 -171 125 -85 -6 -135
-32 -216 -109 l-61 -59 -89 2 c-102 2 -129 -9 -207 -81 -168 -155 -236 -203
-350 -250 -234 -98 -295 -171 -349 -411 -17 -76 -21 -124 -19 -244 1 -91 -4
-189 -14 -250 -8 -55 -12 -119 -8 -143 13 -89 95 -134 206 -114 85 15 294 102
417 174 184 107 217 121 293 125 125 7 190 -33 288 -177 32 -48 69 -96 83
-108 17 -14 32 -44 42 -80 48 -177 105 -261 189 -284 59 -16 286 -4 329 17 35
18 165 128 210 178 16 17 47 63 70 101 54 93 235 505 249 569 23 110 -14 224
-121 366 -78 104 -238 434 -337 695 -21 55 -42 106 -47 113 -15 19 -37 14 -46
-10z m-395 -63 c17 -11 22 -29 27 -90 8 -89 31 -140 84 -183 21 -17 52 -45 68
-61 66 -66 124 -59 162 19 12 25 34 100 49 168 15 67 30 119 34 115 4 -4 15
-30 25 -58 20 -58 182 -420 230 -515 18 -36 67 -111 108 -168 99 -134 120
-191 115 -297 -4 -63 -12 -95 -37 -150 -18 -38 -51 -113 -73 -165 -22 -52 -67
-148 -101 -213 -55 -107 -70 -127 -146 -199 -133 -123 -143 -128 -297 -130
-198 -3 -227 18 -290 219 -31 100 -39 115 -74 143 -21 17 -54 57 -72 88 -79
139 -190 208 -324 200 -81 -5 -136 -28 -289 -118 -117 -68 -308 -153 -397
-176 -107 -28 -180 -1 -194 71 -3 18 2 89 11 158 11 87 14 157 9 229 -5 88 -2
121 19 227 50 242 108 310 352 406 86 34 103 46 234 160 185 162 182 160 281
161 47 0 91 1 98 2 7 1 46 33 87 72 54 49 90 74 123 84 62 19 152 20 178 1z"/>
<path d="M13771 5159 c-15 -20 -53 -45 -108 -70 -102 -47 -167 -99 -233 -187
-57 -76 -64 -117 -31 -199 19 -48 19 -49 -5 -183 -13 -74 -28 -164 -33 -200
-11 -72 -1 -148 20 -161 37 -23 94 -2 145 53 68 72 107 187 129 379 4 37 16
73 35 102 16 26 43 81 60 124 17 43 38 85 46 95 41 44 50 180 15 222 -7 8 -10
19 -8 24 3 4 2 13 -2 20 -5 8 -14 2 -30 -19z m-35 -204 c-14 -24 -38 -74 -54
-112 -15 -37 -40 -90 -56 -116 -32 -55 -42 -89 -55 -204 -16 -131 -64 -259
-108 -288 -12 -8 -25 -15 -29 -15 -9 0 1 94 21 195 8 44 20 118 27 165 10 78
10 90 -10 148 -12 34 -22 67 -22 72 0 6 19 36 41 66 46 60 140 139 206 173 23
11 45 26 50 33 5 8 9 -3 11 -30 2 -32 -3 -54 -22 -87z"/>
</g>
</svg>
