<?xml version="1.0" standalone="no"?>
<!DOCTYPE svg PUBLIC "-//W3C//DTD SVG 20010904//EN"
 "http://www.w3.org/TR/2001/REC-SVG-20010904/DTD/svg10.dtd">
<svg version="1.0" xmlns="http://www.w3.org/2000/svg"
 width="1440.000000pt" height="934.000000pt" viewBox="0 0 1440.000000 934.000000"
 preserveAspectRatio="xMidYMid meet">
<metadata>
Created by potrace 1.16, written by Peter Selinger 2001-2019
</metadata>
<g transform="translate(0.000000,934.000000) scale(0.100000,-0.100000)"
fill="#000000" stroke="none">
<path d="M1 5368 c0 -3574 2 -3971 15 -3951 9 12 25 32 36 45 11 13 32 38 46
57 15 19 40 49 55 67 l28 32 -66 163 c-36 90 -65 171 -65 180 0 15 38 39 63
39 7 0 44 -77 82 -172 75 -183 69 -175 150 -183 90 -8 159 -16 164 -20 3 -1
38 -6 76 -9 121 -11 164 -16 217 -26 28 -6 52 -10 53 -10 2 0 13 -26 26 -58
12 -31 33 -79 45 -107 12 -27 50 -120 83 -206 l61 -156 73 -8 c39 -4 86 -9
102 -11 17 -2 55 -6 85 -9 30 -3 66 -9 80 -12 14 -3 32 -5 41 -4 21 2 29 -17
22 -52 -7 -37 -31 -48 -79 -37 -21 5 -64 11 -94 15 -30 3 -68 8 -85 10 -16 2
-61 6 -100 9 l-70 5 -40 -53 c-115 -152 -310 -386 -327 -392 -10 -3 -45 -3
-76 1 -86 10 -145 17 -167 20 -11 1 -47 6 -80 9 -33 4 -73 9 -90 11 -16 2 -57
7 -90 10 -33 4 -63 9 -67 12 -4 2 -14 -4 -22 -14 -8 -10 -31 -38 -50 -61 l-36
-44 0 -229 0 -229 860 0 c711 0 860 2 860 13 0 16 -48 284 -56 308 -3 10 41
53 138 135 79 65 150 126 159 135 15 15 14 25 -6 135 -13 65 -22 120 -20 122
5 5 13 -26 35 -143 20 -107 20 -110 2 -125 -140 -115 -292 -245 -292 -251 0
-4 14 -78 30 -164 17 -86 30 -159 30 -161 0 -2 8 -4 19 -4 17 0 18 5 9 48 -5
26 -15 84 -23 128 -8 45 -18 89 -21 99 -6 15 -2 17 27 12 19 -3 57 -12 84 -20
28 -9 83 -25 124 -37 104 -29 108 -32 116 -87 16 -112 26 -143 46 -143 23 0
23 0 0 117 l-18 92 38 31 c24 19 36 36 33 45 -4 8 -1 15 6 15 6 0 8 -5 5 -10
-11 -19 6 -10 33 16 l27 26 -27 -16 c-15 -10 -27 -13 -30 -7 -1 6 -23 -7 -48
-29 -27 -24 -55 -40 -71 -40 -14 0 -70 14 -125 31 -54 17 -118 35 -142 41 -24
5 -46 17 -49 25 -7 17 18 41 152 148 27 22 61 50 75 63 20 19 31 22 60 16 19
-3 47 -7 62 -8 14 0 24 -4 22 -7 -5 -9 37 -20 48 -13 16 10 7 26 -12 21 -11
-3 -18 -1 -15 3 5 8 -29 21 -87 34 -30 7 -31 9 -53 131 -21 117 -23 123 -43
129 -9 2 -6 4 8 3 23 -2 25 -8 45 -114 11 -62 25 -117 30 -122 10 -10 265 -91
332 -105 17 -4 36 -13 41 -19 6 -7 25 -94 43 -194 29 -160 36 -182 54 -186 11
-3 70 -21 130 -39 99 -31 110 -37 107 -56 l-3 -22 945 0 945 0 25 82 c13 46
30 102 37 125 7 24 19 45 28 47 18 5 326 76 354 81 30 6 33 12 68 130 29 98
37 115 54 114 13 -1 15 -3 5 -5 -9 -3 -28 -48 -50 -120 -26 -88 -39 -118 -55
-125 -17 -7 -238 -58 -325 -75 -14 -3 -32 -7 -40 -9 -16 -5 -88 -231 -77 -241
17 -17 35 12 57 90 15 53 29 85 37 84 6 -2 52 -42 102 -90 67 -66 97 -88 117
-88 29 0 38 -10 -129 148 -56 52 -64 76 -29 86 16 5 84 20 244 52 l77 16 34
-37 c23 -25 39 -35 47 -30 8 5 11 4 7 -2 -4 -6 0 -16 8 -23 8 -7 15 -9 15 -6
0 4 10 1 23 -5 22 -12 22 -12 3 9 -10 12 -24 19 -30 15 -6 -3 -8 -2 -3 2 4 5
-13 29 -37 54 l-45 46 37 123 c20 68 38 118 40 112 3 -7 -11 -62 -29 -122
l-34 -111 144 -139 c121 -118 142 -143 138 -164 l-4 -24 4473 0 4474 0 0 1558
0 1557 -48 1 c-44 0 -167 11 -237 20 -86 11 -195 15 -195 8 0 -5 -10 -20 -23
-34 -12 -14 -51 -60 -86 -103 -35 -42 -71 -77 -80 -77 -23 1 -58 29 -46 38 6
4 50 56 99 115 l88 108 -52 117 c-29 64 -65 142 -80 172 -49 98 -56 81 101
265 l141 167 -56 119 c-31 66 -56 125 -55 132 0 7 29 -48 64 -122 l65 -133
-58 -67 c-31 -36 -59 -68 -62 -71 -3 -3 -37 -43 -75 -90 -39 -47 -73 -86 -77
-88 -5 -2 -8 -9 -8 -16 0 -12 107 -253 150 -335 18 -36 20 -49 11 -63 -6 -11
-9 -23 -6 -28 3 -6 0 -8 -7 -5 -7 3 -34 -21 -63 -57 -27 -35 -52 -65 -55 -68
-43 -43 -54 -62 -40 -70 8 -5 18 -10 21 -10 3 0 45 47 93 105 48 58 95 109
104 114 9 4 51 5 92 0 72 -8 110 -11 266 -25 39 -3 80 -6 90 -7 15 -2 19 5 21
36 1 25 -2 37 -11 37 -18 0 -161 314 -150 332 4 7 32 41 62 75 30 35 51 63 47
63 -4 0 -15 -8 -24 -18 -9 -9 -27 -26 -40 -37 l-25 -20 17 25 c25 37 20 49 -6
14 -62 -84 -89 -96 -179 -84 -34 5 -112 14 -172 20 -66 6 -113 15 -117 22 -8
12 15 48 72 112 27 31 92 106 137 160 23 27 25 28 110 22 57 -4 80 -3 67 3
-12 6 -14 10 -6 10 32 2 -1 13 -51 17 -93 8 -89 4 -149 136 -45 101 -59 122
-75 120 -16 -2 -16 -1 -4 7 8 6 18 11 22 11 5 0 34 -56 67 -124 66 -140 54
-131 191 -140 56 -4 174 -15 205 -20 7 -1 11 912 13 2717 l2 2717 -7200 0
-7200 0 1 -3972z m13929 -1838 c47 -5 117 -12 155 -15 39 -3 77 -8 85 -10 13
-4 161 -306 160 -328 0 -7 -106 -2 -185 8 -16 3 -59 7 -95 10 -98 9 -130 15
-130 25 0 5 -31 76 -70 159 -38 82 -70 152 -70 155 0 9 53 7 150 -4z m-3050
-886 c41 -85 80 -160 88 -166 7 -7 61 -13 120 -15 59 -2 152 -5 207 -8 55 -3
135 -7 177 -9 42 -2 81 -7 87 -10 6 -4 65 -119 132 -256 l122 -250 46 -1 c25
-1 78 -3 116 -6 39 -2 99 -5 135 -7 36 -2 75 -4 88 -5 19 -1 22 -7 22 -40 0
-24 -5 -41 -14 -44 -13 -5 -71 -4 -322 7 l-82 4 -143 -211 c-79 -116 -157
-225 -174 -242 -34 -35 -13 -34 -270 -21 -71 4 -176 9 -232 11 -114 4 -100 11
-161 -77 -13 -18 -48 -67 -78 -110 -30 -42 -54 -79 -54 -83 0 -3 -11 -18 -24
-32 -22 -24 -26 -25 -55 -12 -36 16 -45 33 -25 49 8 7 14 18 14 25 0 6 9 20
20 30 11 10 20 22 20 27 0 5 5 14 10 21 21 24 92 123 120 167 l29 45 -57 115
c-31 64 -88 179 -126 257 l-69 141 43 68 c24 38 46 71 50 74 4 3 20 24 36 46
16 23 59 85 97 138 37 53 67 98 67 101 0 3 9 15 20 27 11 12 20 28 20 35 0 7
-37 86 -81 175 -45 89 -77 164 -72 165 6 2 19 10 29 18 10 8 26 14 34 14 9 0
43 -57 90 -155z m2500 150 c-9 -3 -28 -48 -50 -120 -26 -88 -39 -118 -55 -125
-17 -7 -238 -58 -325 -75 -14 -3 -32 -7 -40 -9 -10 -3 -32 -64 -64 -172 -27
-93 -53 -175 -58 -185 -4 -9 -30 -21 -60 -27 -170 -34 -208 -46 -208 -63 0
-10 2 -18 4 -18 3 0 60 13 128 30 67 16 129 30 137 30 7 0 76 -61 151 -135 82
-81 145 -135 156 -134 11 0 60 11 109 25 50 13 77 22 60 20 -28 -4 -28 -3 -10
10 23 17 17 17 -63 0 -34 -8 -64 -11 -66 -7 -1 3 18 76 44 161 l46 154 84 20
c59 14 78 22 64 27 -17 7 -17 8 -1 8 9 1 17 5 17 10 0 5 -33 1 -72 -10 -40
-10 -81 -19 -90 -19 -10 0 -46 28 -81 63 -35 34 -89 86 -120 115 -56 52 -64
76 -29 86 16 5 84 20 244 52 l77 16 34 -37 c23 -25 39 -35 47 -30 8 5 11 4 7
-2 -4 -6 0 -16 8 -23 8 -7 15 -9 15 -6 0 4 10 1 23 -5 22 -12 22 -12 3 9 -10
12 -24 19 -30 15 -6 -3 -8 -2 -3 2 4 5 -13 29 -37 54 l-45 46 37 123 c20 68
38 118 40 112 3 -7 -11 -62 -29 -122 l-34 -111 143 -138 c78 -76 142 -144 142
-151 0 -7 -23 -87 -50 -177 -28 -90 -50 -168 -50 -175 0 -6 44 -52 97 -103
l98 -92 -21 -22 -22 -21 -48 43 c-26 24 -72 68 -102 97 -41 41 -59 52 -76 48
-11 -2 -64 -15 -116 -27 -52 -11 -129 -29 -170 -39 -93 -22 -84 -27 -248 134
-68 67 -125 122 -126 124 -2 1 -50 -8 -107 -22 -172 -40 -166 -40 -179 -16 -6
11 -9 24 -6 28 3 5 42 17 88 27 46 10 105 23 133 29 l50 12 53 180 c30 98 56
181 57 182 3 3 311 77 362 86 37 7 39 11 74 131 29 98 37 115 54 114 13 -1 15
-3 5 -5z m-323 -512 l121 -117 -46 -152 c-26 -83 -50 -155 -54 -159 -8 -8
-248 224 -248 240 -1 26 86 306 95 305 6 0 65 -53 132 -117z m-9103 -202 c14
-5 26 -16 26 -24 0 -8 -27 -85 -60 -171 -33 -86 -60 -162 -60 -168 0 -7 12
-25 26 -42 14 -16 33 -39 42 -50 39 -47 127 -150 132 -155 3 -3 22 -26 42 -51
21 -26 55 -66 78 -90 22 -24 43 -54 46 -67 6 -21 -24 -106 -180 -514 -9 -24
-5 -32 45 -90 31 -35 64 -74 75 -87 10 -13 38 -45 61 -70 66 -72 71 -86 43
-116 -13 -14 -28 -25 -33 -25 -9 0 -47 37 -86 85 -21 26 -114 136 -146 171 -5
7 -18 22 -28 33 -10 13 -25 20 -35 17 -9 -2 -44 -7 -77 -11 -33 -3 -76 -10
-95 -15 -19 -4 -60 -11 -90 -14 -30 -3 -100 -13 -155 -21 -156 -23 -143 -27
-226 73 -40 48 -78 92 -84 98 -5 6 -26 30 -45 54 -19 24 -39 48 -45 54 -5 6
-35 40 -65 76 -65 77 -70 81 -90 74 -22 -8 -299 -47 -344 -48 -38 -1 -40 1
-47 34 -4 19 -5 38 -1 42 6 6 160 31 352 57 l45 6 97 255 c53 140 100 261 105
268 7 13 84 25 403 69 25 3 52 7 60 8 8 2 40 6 71 10 l56 7 53 142 c87 231 78
218 134 196z m9475 -820 l1 -95 -43 -21 c-23 -11 -111 -55 -195 -98 l-153 -78
7 -213 c7 -201 6 -212 -12 -219 -16 -6 -16 -9 -4 -17 12 -8 10 -9 -7 -4 -15 4
-53 -10 -122 -45 -56 -28 -103 -55 -105 -59 -3 -4 -1 -13 4 -21 7 -12 34 -2
144 54 l134 69 58 -33 c67 -38 140 -78 244 -133 41 -22 80 -44 86 -48 7 -6 46
9 102 38 92 48 115 66 49 38 -50 -21 -46 -13 10 24 61 41 50 39 -41 -6 -42
-20 -77 -35 -80 -33 -2 3 -6 86 -8 184 l-3 179 73 38 c89 45 100 55 42 34 -24
-8 -45 -13 -47 -11 -3 2 5 7 16 11 12 3 21 10 21 15 0 12 -30 1 -52 -18 -26
-22 -114 -28 -136 -10 -9 8 -39 26 -67 40 -27 14 -79 42 -115 63 -36 20 -73
39 -82 42 -10 3 -18 15 -18 27 0 22 7 26 180 111 41 21 86 43 100 51 38 21 56
17 126 -22 36 -20 67 -34 70 -31 3 3 -7 12 -23 21 -37 20 -21 21 19 0 16 -9
27 -11 24 -5 -4 5 -30 22 -59 36 -98 50 -92 38 -93 198 -2 118 -1 129 6 67 4
-41 8 -105 9 -141 l1 -67 83 -43 c85 -44 106 -56 222 -121 39 -21 77 -43 85
-47 14 -8 23 -117 29 -373 l1 -57 53 -29 c28 -17 89 -49 135 -73 45 -23 82
-47 82 -54 0 -6 -6 -20 -14 -31 -14 -18 -17 -18 -88 21 -40 22 -103 55 -141
75 l-67 35 -190 -97 c-104 -54 -194 -98 -201 -98 -6 0 -37 15 -68 34 -31 18
-105 60 -166 91 -60 32 -121 64 -135 72 -14 7 -30 13 -36 13 -7 0 -69 -29
-138 -65 l-125 -65 -21 22 c-11 12 -20 25 -20 29 0 3 55 35 123 69 67 35 128
67 135 73 9 7 12 24 8 51 -3 23 -6 115 -8 206 l-2 165 119 62 c66 35 155 80
198 100 l78 38 -5 140 c-3 95 -2 124 4 90 4 -27 9 -93 9 -145z m-156 -444
l172 -95 3 -180 c2 -100 1 -181 -2 -181 -6 0 -339 181 -347 189 -11 10 -18
361 -7 361 5 0 86 -42 181 -94z"/>
<path d="M13810 3524 c0 -5 95 -214 115 -254 l24 -48 68 -7 c79 -9 91 -10 201
-20 47 -4 82 -3 82 2 0 18 -122 278 -135 289 -8 6 -41 12 -74 13 -32 1 -72 4
-88 7 -30 6 -193 21 -193 18z"/>
<path d="M10763 2777 c-13 -5 -23 -13 -23 -17 0 -4 36 -80 80 -169 78 -157 88
-186 72 -193 -4 -1 -68 -91 -141 -198 -74 -107 -137 -197 -140 -200 -3 -3 -13
-19 -23 -35 l-16 -30 113 -230 c153 -309 142 -277 110 -319 -15 -20 -24 -40
-19 -47 4 -7 3 -9 -3 -6 -6 4 -23 -13 -40 -36 -117 -166 -143 -207 -128 -207
8 0 15 -4 15 -10 0 -33 36 7 120 131 52 78 105 152 117 165 24 26 15 26 323 8
291 -16 285 -17 319 49 8 15 18 27 23 27 4 0 8 5 8 12 0 6 12 27 27 47 l28 36
-28 -18 c-34 -22 -35 -7 -2 41 27 40 31 52 15 52 -5 0 -10 -6 -10 -12 0 -7
-14 -29 -30 -48 -16 -19 -30 -39 -30 -43 0 -12 -49 -62 -55 -56 -16 17 -215
434 -211 444 2 7 30 49 61 94 31 44 52 81 47 81 -5 0 -16 -10 -24 -22 -9 -13
-19 -18 -27 -14 -9 6 -8 11 6 22 12 9 14 13 5 14 -16 0 -51 -39 -52 -58 -1
-41 -106 -111 -147 -98 -38 12 -385 22 -402 12 -5 -4 -16 6 -24 21 -13 25 -12
29 14 66 16 22 29 44 29 48 0 5 9 19 19 31 11 13 29 34 40 47 12 13 21 29 21
34 0 6 7 17 15 26 40 42 75 87 75 98 0 19 78 96 89 89 16 -10 181 -14 187 -5
3 5 -12 10 -33 10 -21 1 -29 3 -18 6 33 8 42 23 15 24 -14 1 -59 2 -100 4
l-74 3 -82 167 c-45 91 -84 168 -85 169 -2 2 -14 -1 -26 -7z m356 -892 c29 -2
54 -5 56 -7 6 -6 207 -423 208 -433 2 -11 -72 -11 -303 0 -80 4 -160 7 -177 6
l-33 -2 -109 220 c-61 120 -107 222 -103 226 6 6 318 0 461 -10z"/>
<path d="M10697 1884 c-6 -7 187 -399 200 -407 4 -3 95 -8 201 -12 106 -4 204
-8 218 -10 13 -1 27 1 29 6 4 6 -177 384 -190 397 -2 2 -45 5 -97 7 -200 8
-343 17 -349 20 -3 3 -9 2 -12 -1z"/>
<path d="M10968 2371 c-15 -5 -238 -315 -269 -373 -8 -16 -5 -18 28 -19 21 0
65 -2 98 -4 33 -2 122 -6 198 -10 160 -8 141 -16 222 104 28 41 57 84 65 96 8
12 24 35 35 51 11 16 36 52 57 81 21 29 34 54 30 57 -6 4 -103 9 -382 21 -36
1 -73 -1 -82 -4z"/>
<path d="M11455 2202 c-32 -48 -91 -133 -129 -190 l-70 -103 99 -200 100 -200
20 25 c21 26 55 74 174 247 l72 107 -100 201 c-56 110 -102 201 -104 201 -1
-1 -29 -40 -62 -88z"/>
<path d="M13249 2496 c-4 -4 -98 -25 -209 -47 -24 -5 -48 -13 -52 -17 -7 -7
201 -212 224 -220 8 -3 274 52 308 64 23 8 -208 223 -241 224 -14 0 -28 -2
-30 -4z"/>
<path d="M13465 2196 c-27 -7 -86 -21 -130 -30 -44 -10 -85 -19 -91 -21 -8 -2
-94 -264 -94 -288 0 -3 26 1 58 8 31 7 100 23 153 35 l95 22 39 131 c21 73 40
138 43 145 5 15 -8 14 -73 -2z"/>
<path d="M12901 2284 c-16 -54 -36 -121 -43 -147 l-13 -49 107 -104 c59 -57
111 -104 115 -104 4 0 20 42 36 93 15 50 34 113 41 138 16 53 25 40 -132 193
l-80 79 -31 -99z"/>
<path d="M3845 1901 l-67 -179 -51 -6 c-29 -3 -63 -8 -77 -10 -14 -2 -52 -6
-85 -10 -33 -4 -71 -9 -85 -12 -14 -3 -45 -8 -70 -11 -55 -6 -85 -11 -85 -13
0 -1 -20 -3 -45 -4 -74 -5 -83 -11 -107 -73 -90 -239 -156 -411 -163 -428 -4
-11 -11 -28 -14 -37 -4 -13 -16 -18 -43 -18 -21 0 -65 -5 -98 -10 -33 -6 -76
-13 -95 -15 -165 -22 -168 -23 -162 -52 5 -27 1 -27 122 -8 14 2 47 7 73 10
27 3 53 7 58 10 4 3 40 8 79 11 l71 4 42 -44 c55 -57 117 -127 117 -132 0 -4
17 -25 55 -69 11 -12 38 -44 60 -70 22 -26 55 -63 72 -83 18 -21 33 -41 33
-45 0 -5 4 -6 8 -3 8 5 89 16 140 20 12 0 22 4 22 8 0 3 10 4 22 0 14 -3 19
-2 14 6 -4 7 -15 12 -24 12 -24 0 -2 17 38 29 36 10 21 10 -108 -4 -17 -1 -35
1 -38 6 -5 9 151 435 166 452 6 6 97 25 152 31 10 1 20 5 24 8 3 4 13 4 22 1
13 -4 14 -3 3 5 -7 5 -22 7 -32 5 -13 -4 -19 0 -19 12 0 14 -6 16 -27 11 -65
-14 -97 -13 -139 5 -24 10 -44 23 -44 29 0 5 -9 19 -19 29 -10 10 -37 42 -59
69 -38 49 -60 74 -128 147 -17 18 -34 40 -37 49 -4 9 -13 16 -22 16 -18 0 -18
-1 -5 36 9 25 17 30 47 32 20 2 41 6 46 9 6 3 41 8 79 9 38 2 74 7 81 11 7 4
41 9 76 11 35 2 71 7 80 11 9 5 35 8 59 6 44 -2 47 -5 122 -95 13 -17 28 -30
33 -30 5 0 4 7 -3 15 -8 9 -9 15 -2 15 6 0 14 -4 17 -10 3 -5 13 -10 21 -10
11 0 10 4 -3 19 -56 60 -108 126 -106 135 2 6 32 87 67 179 l65 168 -25 10
c-14 5 -27 9 -28 9 -2 0 -34 -80 -71 -179z m-577 -386 c18 -19 32 -37 32 -41
0 -4 10 -16 23 -28 12 -12 40 -44 61 -71 22 -28 47 -57 55 -66 9 -9 30 -33 46
-54 17 -20 40 -48 53 -62 12 -13 22 -28 22 -33 0 -6 -27 -81 -60 -167 -34 -87
-70 -185 -82 -218 -11 -33 -24 -63 -27 -68 -7 -7 -61 35 -61 48 0 3 -15 22
-32 41 -64 70 -73 81 -103 119 -16 22 -42 52 -57 67 -16 16 -28 31 -28 34 0 3
-16 21 -35 41 -33 34 -34 37 -21 67 7 17 46 120 87 229 40 108 79 197 85 197
6 0 25 -16 42 -35z"/>
<path d="M3155 1306 c-43 -113 -75 -211 -72 -218 3 -7 35 -49 72 -92 210 -251
222 -264 229 -246 3 8 39 104 79 212 l75 197 -72 84 c-39 47 -105 126 -146
176 -41 49 -78 90 -81 90 -4 1 -41 -91 -84 -203z"/>
<path d="M3690 1644 c-14 -3 -50 -9 -80 -14 -30 -6 -73 -12 -95 -14 -71 -8
-200 -28 -204 -32 -3 -2 87 -113 109 -134 3 -3 41 -48 85 -100 44 -52 88 -104
97 -114 16 -18 23 -18 100 -7 46 6 94 13 108 16 14 3 81 13 150 22 69 9 127
18 129 20 3 2 -53 74 -82 105 -7 7 -59 68 -116 136 -111 132 -107 130 -201
116z"/>
<path d="M4079 1186 c-2 -2 -29 -7 -59 -11 -120 -15 -371 -53 -375 -56 -2 -2
-39 -97 -83 -212 -63 -164 -76 -207 -63 -207 9 0 44 5 78 10 34 6 75 12 90 14
85 11 268 39 271 41 2 2 36 90 77 197 40 106 76 201 80 211 6 15 -4 24 -16 13z"/>
<path d="M13287 1034 c-82 -42 -147 -77 -145 -80 6 -6 196 -111 265 -146 l62
-32 156 80 c131 67 153 81 139 91 -44 32 -293 163 -310 163 -10 -1 -86 -35
-167 -76z"/>
<path d="M13668 796 c-75 -39 -141 -76 -147 -81 -6 -6 -7 -73 -3 -172 l7 -163
30 16 c17 9 83 43 147 75 64 33 119 63 122 67 7 12 -6 332 -13 331 -3 -1 -68
-34 -143 -73z"/>
<path d="M13110 765 c0 -67 3 -143 6 -168 l6 -45 149 -81 c81 -45 152 -81 156
-81 10 0 4 312 -6 323 -5 4 -76 46 -160 92 l-151 83 0 -123z"/>
<path d="M13955 3775 c-44 -54 -95 -115 -114 -136 -18 -21 -29 -39 -25 -40 5
0 16 -2 24 -3 8 -2 53 -6 100 -10 47 -4 94 -9 105 -11 11 -3 47 -7 80 -9 l60
-5 103 124 c113 137 124 155 96 156 -39 1 -120 9 -149 14 -16 2 -68 7 -115 11
l-85 5 -80 -96z"/>
<path d="M14325 3615 c-38 -46 -70 -88 -70 -93 0 -17 129 -292 137 -292 4 0 8
106 8 235 0 129 -1 235 -2 235 -2 0 -34 -38 -73 -85z"/>
<path d="M85 1978 c-11 -6 -22 -12 -24 -14 -2 -1 29 -81 69 -177 70 -171 72
-175 53 -195 -10 -10 -25 -28 -33 -38 -60 -78 -95 -120 -105 -129 -26 -23 -45
-62 -45 -92 l0 -33 40 44 c22 24 40 47 40 52 1 5 21 29 45 54 25 25 45 48 45
53 0 4 18 26 40 48 33 34 45 40 68 35 57 -12 142 -16 142 -7 0 5 -8 12 -17 14
-11 3 -6 5 11 6 30 1 29 13 -2 18 -26 4 -114 15 -137 17 -15 1 -33 35 -90 173
-38 94 -72 174 -75 177 -3 2 -14 0 -25 -6z"/>
<path d="M224 1525 c-24 -24 -61 -68 -83 -97 -23 -29 -63 -80 -91 -113 -39
-48 -49 -68 -50 -97 0 -32 3 -38 23 -39 12 -1 31 -3 42 -4 11 -1 49 -6 85 -10
36 -4 79 -9 95 -11 160 -23 179 -23 200 -1 34 36 275 341 275 348 0 7 -47 15
-150 25 -36 4 -68 8 -72 10 -3 2 -39 7 -80 10 -40 3 -91 10 -113 14 -38 9 -41
7 -81 -35z"/>
<path d="M735 1353 c-33 -42 -97 -121 -142 -176 -46 -54 -83 -102 -83 -106 0
-4 4 -11 9 -16 4 -6 20 -41 35 -80 15 -38 34 -83 41 -100 7 -16 28 -68 46
-115 18 -47 36 -88 39 -93 4 -4 61 61 127 145 67 84 131 164 142 177 12 13 21
27 21 30 0 12 -165 411 -170 411 -3 0 -32 -35 -65 -77z"/>
<path d="M527 1223 c-4 -3 -7 -13 -7 -20 0 -40 -117 -111 -151 -93 -8 4 -39
11 -69 14 -30 4 -98 11 -150 17 -163 19 -150 20 -150 -7 0 -16 7 -25 22 -29
30 -6 165 -23 248 -31 36 -3 83 -9 104 -14 22 -5 43 -7 46 -5 5 3 171 -395
187 -448 5 -17 1 -18 -43 -13 -27 3 -71 8 -99 11 -27 3 -79 10 -115 15 -59 9
-122 16 -219 25 -18 2 -37 7 -41 12 -4 4 -25 53 -46 108 l-39 100 -3 -63 c-2
-45 3 -79 19 -122 21 -59 21 -59 2 -84 -12 -15 -20 -41 -21 -68 -1 -43 -1 -43
16 -19 9 13 30 37 46 53 29 29 32 30 100 24 94 -8 147 -14 231 -27 39 -6 88
-12 110 -14 63 -5 139 -15 155 -20 10 -2 40 29 85 88 77 100 93 126 50 84 -34
-33 -46 -27 -19 11 11 15 24 36 28 47 l7 20 -18 -20 c-10 -11 -40 -46 -67 -78
-27 -32 -53 -54 -57 -50 -7 7 -104 239 -169 404 l-19 46 40 49 c22 27 47 57
55 67 19 23 19 44 0 28 -10 -8 -16 -9 -21 -1 -7 12 -19 13 -28 3z"/>
<path d="M0 1017 c0 -56 8 -85 56 -204 31 -76 57 -139 58 -140 1 -1 24 -5 51
-8 28 -3 60 -8 71 -10 12 -3 50 -8 85 -11 35 -3 103 -12 152 -18 48 -7 90 -9
93 -4 5 8 -61 191 -76 213 -4 6 -22 49 -40 97 -18 48 -38 92 -44 97 -7 6 -37
12 -66 15 -75 7 -150 16 -180 21 -14 3 -55 7 -92 11 l-68 6 0 -65z"/>
<path d="M1915 472 c-50 -42 -103 -87 -119 -100 -16 -12 -26 -25 -23 -28 3 -4
72 -26 153 -50 120 -36 149 -41 163 -31 40 28 231 192 231 198 0 9 -272 89
-300 89 -8 -1 -56 -35 -105 -78z"/>
<path d="M2335 382 c-17 -15 -72 -62 -122 -104 l-91 -76 21 -101 21 -101 66 0
c64 0 66 1 125 51 33 28 61 57 63 64 2 10 -46 286 -51 292 -1 1 -16 -11 -32
-25z"/>
<path d="M1750 267 c0 -13 36 -205 45 -244 5 -23 8 -23 145 -23 105 0 140 3
140 13 0 6 -7 49 -16 93 -16 80 -17 82 -53 93 -217 67 -261 78 -261 68z"/>
<path d="M5079 276 c-4 -4 -97 -25 -207 -47 -24 -5 -48 -12 -54 -15 -6 -4 37
-52 98 -110 100 -95 112 -103 149 -104 34 0 239 40 285 56 23 8 -208 223 -241
224 -14 0 -28 -2 -30 -4z"/>
<path d="M4737 84 l-24 -79 54 -3 c29 -2 77 -2 105 0 l53 3 -82 79 -82 78 -24
-78z"/>
</g>
</svg>
